<svg width="36" height="36" viewBox="0 0 36 36" fill="none" xmlns="http://www.w3.org/2000/svg">
<path d="M18.108 4.31689H2.24698C1.59237 4.31689 1.06172 4.84761 1.06172 5.50215V13.154C1.06172 13.8087 1.5923 14.3394 2.24698 14.3394H18.1081C18.7627 14.3394 19.2934 13.8086 19.2934 13.1541V5.50215C19.2934 4.84761 18.7626 4.31689 18.108 4.31689ZM16.9228 11.9688H3.43223V6.68748H16.9228V11.9688Z" fill="white"/>
<path d="M8.61776 28.1584C9.18304 28.1584 9.6413 27.7001 9.6413 27.1349C9.6413 26.5696 9.18304 26.1113 8.61776 26.1113C8.05248 26.1113 7.59422 26.5696 7.59422 27.1349C7.59422 27.7001 8.05248 28.1584 8.61776 28.1584Z" fill="white"/>
<path d="M34.8147 14.6426H32.0845L29.543 9.20081C29.3482 8.78364 28.9295 8.51709 28.4691 8.51709H21.9234C21.2688 8.51709 20.7381 9.04781 20.7381 9.70235V15.6661H1.18526C0.530718 15.6661 0 16.1967 0 16.8514V26.2091C0 26.8637 0.530718 27.3943 1.18526 27.3943H4.07748C4.21234 29.782 6.19698 31.6833 8.61791 31.6833C11.0388 31.6833 13.0233 29.7821 13.1582 27.3943C13.4837 27.3943 22.5784 27.3943 23.0855 27.3943C23.2204 29.782 25.2049 31.6833 27.6258 31.6833C30.0467 31.6833 32.0313 29.7821 32.1662 27.3943H34.8147C35.4694 27.3943 36 26.8636 36 26.2091V15.8278C35.9999 15.1733 35.4692 14.6426 34.8147 14.6426ZM8.61791 29.3129C7.41711 29.3129 6.44019 28.336 6.44019 27.1352C6.44019 25.9222 7.43441 24.9576 8.61791 24.9576C9.80147 24.9576 10.7956 25.9219 10.7956 27.1352C10.7955 28.336 9.81863 29.3129 8.61791 29.3129ZM20.7203 25.0238H12.6453C11.8696 23.5513 10.3304 22.5869 8.61777 22.5869C6.88175 22.5869 5.35647 23.571 4.5902 25.0238H2.37058V18.0366H20.7203V25.0238ZM23.1087 10.8876H27.7144L29.4681 14.6426H23.1087V10.8876ZM27.6257 29.3129C26.4249 29.3129 25.4481 28.336 25.4481 27.1352C25.4481 25.9233 26.4415 24.9576 27.6257 24.9576C28.8208 24.9576 29.8034 25.9333 29.8034 27.1352C29.8034 28.336 28.8266 29.3129 27.6257 29.3129ZM33.6293 25.0238H31.6533C30.8643 23.5278 29.3118 22.5869 27.6257 22.5869C25.9192 22.5869 24.3761 23.5473 23.5982 25.0238H23.1087V17.0131C23.2758 17.0131 33.3899 17.0131 33.6293 17.0131V25.0238Z" fill="white"/>
<path d="M27.6256 28.1584C28.1909 28.1584 28.6491 27.7001 28.6491 27.1349C28.6491 26.5696 28.1909 26.1113 27.6256 26.1113C27.0603 26.1113 26.6021 26.5696 26.6021 27.1349C26.6021 27.7001 27.0603 28.1584 27.6256 28.1584Z" fill="white"/>
</svg>
