<svg width="34" height="34" viewBox="0 0 34 34" fill="none" xmlns="http://www.w3.org/2000/svg">
<g clip-path="url(#clip0_74_229)">
<path d="M31.3518 21.5762C30.5694 21.2343 29.6585 21.5914 29.3168 22.3735C27.1774 27.2702 22.3428 30.4341 17.0002 30.4341C12.7651 30.4341 8.84984 28.4436 6.34243 25.1793L11.6206 26.2292C12.4578 26.3958 13.2712 25.852 13.4378 25.0149C13.6043 24.1778 13.0606 23.3642 12.2235 23.1977L3.5687 21.4762C2.73159 21.3101 1.91808 21.8533 1.75149 22.6904L0.0299832 31.3453C-0.136511 32.1824 0.40717 32.996 1.24428 33.1625C1.34607 33.1827 1.44745 33.1924 1.54739 33.1924C2.26962 33.1924 2.91519 32.6835 3.06149 31.9482L4.004 27.2097C7.09196 31.1374 11.855 33.5249 17.0002 33.5249C23.5714 33.5249 29.5177 29.6335 32.1491 23.611C32.4908 22.829 32.1339 21.9179 31.3518 21.5762Z" fill="white"/>
<path d="M32.7557 0.836624C31.9186 0.670337 31.105 1.21381 30.9385 2.05092L29.9959 6.78992C26.9078 2.86247 22.1449 0.475098 17.0002 0.475098C10.4292 0.475098 4.48277 4.36658 1.85111 10.3889C1.50937 11.171 1.86636 12.0821 2.64845 12.4238C2.84997 12.5118 3.05984 12.5535 3.26652 12.5535C3.86213 12.5535 4.42971 12.2072 4.68347 11.6265C6.82316 6.72985 11.6578 3.56585 17.0003 3.56585C21.2347 3.56585 25.1499 5.55594 27.6573 8.81978L22.3793 7.76982C21.542 7.60343 20.7286 8.1469 20.562 8.98401C20.3955 9.82112 20.9391 10.6347 21.7762 10.8013L30.4312 12.523C30.5312 12.5429 30.6322 12.5527 30.7328 12.5527C31.0362 12.5527 31.3354 12.4633 31.5913 12.2923C31.9321 12.0646 32.1685 11.7108 32.2484 11.3087L33.9699 2.65374C34.1365 1.81673 33.5928 1.00312 32.7557 0.836624Z" fill="white"/>
</g>
<defs>
<clipPath id="clip0_74_229">
<rect width="34" height="34" fill="white"/>
</clipPath>
</defs>
</svg>
