<svg width="30" height="30" viewBox="0 0 30 30" fill="none" xmlns="http://www.w3.org/2000/svg">
<g clip-path="url(#clip0_74_177)">
<path d="M19.5678 23.347L26.6392 16.2756C27.1274 15.7874 27.1273 14.9958 26.639 14.5077L23.1027 10.9726C22.6145 10.4846 21.8231 10.4847 21.335 10.9728L20.4512 11.8567L15.1483 6.55288L16.0324 5.66881C16.5206 5.1806 16.5205 4.38899 16.0322 3.90084L12.496 0.365952C12.0078 -0.122082 11.2164 -0.121964 10.7283 0.366186L3.65822 7.43748C3.17013 7.92563 3.17019 8.71706 3.65828 9.20521L7.19334 12.7403C7.68149 13.2284 8.47298 13.2284 8.96113 12.7403L9.84503 11.8564L11.6128 13.6241L0.0789795 25.1579L1.84677 26.9257L13.3805 15.392L15.1488 17.1603L14.2649 18.0443C13.7768 18.5325 13.7769 19.3239 14.265 19.812L17.8 23.3471C18.2883 23.8352 19.0797 23.8352 19.5678 23.347ZM8.07724 10.0886L6.30991 8.32126L11.6125 3.0177L13.3806 4.7852L10.3738 7.79198L8.96102 9.20428C8.95932 9.20598 8.95797 9.20779 8.95633 9.20949L8.07724 10.0886ZM12.1426 9.55877L13.3808 8.32102L18.6834 13.6246L16.9161 15.3919L11.6128 10.0886L12.1426 9.55877ZM22.2192 13.6245L23.9873 15.392L18.6839 20.6953L16.9166 18.928L22.2192 13.6245Z" fill="white"/>
<path d="M28.671 27.5H17.4208C16.7305 27.5 16.1708 28.0596 16.1708 28.75C16.1708 29.4404 16.7305 30 17.4208 30H28.671C29.3613 30 29.921 29.4404 29.921 28.75C29.921 28.0596 29.3613 27.5 28.671 27.5Z" fill="white"/>
<path d="M21.1709 23.75C20.4805 23.75 19.9209 24.3096 19.9209 25C19.9209 25.6904 20.4805 26.25 21.1709 26.25H24.9209C25.6113 26.25 26.1709 25.6904 26.1709 25C26.1709 24.3096 25.6113 23.75 24.9209 23.75H21.1709Z" fill="white"/>
</g>
<defs>
<clipPath id="clip0_74_177">
<rect width="30" height="30" fill="white"/>
</clipPath>
</defs>
</svg>
