<svg width="33" height="33" viewBox="0 0 33 33" fill="none" xmlns="http://www.w3.org/2000/svg">
<path d="M30.3272 17.557C30.3272 16.3602 30.3272 13.3733 30.3272 13.3638C30.3272 12.976 30.0129 12.6617 29.625 12.6617H22.0307L21.6 8.71922L26.056 5.76379V7.52529C25.2388 7.81513 24.6517 8.59553 24.6517 9.5109C24.6517 10.6723 25.5967 11.6173 26.7581 11.6173C27.9196 11.6173 28.8645 10.6723 28.8645 9.5109C28.8645 8.59553 28.2774 7.81507 27.4601 7.52522C27.4598 6.56101 27.4591 4.50289 27.4587 4.49503C27.4633 4.41485 27.4546 4.33305 27.4304 4.25287C27.341 3.95639 27.0679 3.75343 26.7581 3.75343H21.0574L20.7157 0.625711C20.6766 0.269672 20.3758 0 20.0176 0H12.9823C12.9798 0 12.9775 0.000322266 12.975 0.000322266C12.9683 0.000451172 12.9617 0.000966797 12.955 0.00122461C12.609 0.0146309 12.3223 0.27876 12.2843 0.625775L11.9426 3.75349H6.24191C5.93221 3.75349 5.65906 3.95639 5.56966 4.25294C5.54549 4.33312 5.53679 4.41491 5.5413 4.49509C5.54098 4.50295 5.54027 6.56101 5.53988 7.52529C4.72262 7.81513 4.13551 8.59553 4.13551 9.51096C4.13551 10.6724 5.08046 11.6174 6.24191 11.6174C7.40335 11.6174 8.3483 10.6724 8.3483 9.51096C8.3483 8.59566 7.76126 7.8152 6.94406 7.52535V5.76385L11.4 8.71922L10.9693 12.6618H3.3749C3.07178 12.6618 2.80288 12.8563 2.708 13.1442C2.67984 13.2298 2.66933 13.3179 2.6743 13.4042C2.67397 13.4122 2.6732 16.3674 2.67288 17.557C1.85561 17.8468 1.26851 18.6272 1.26851 19.5426C1.26851 20.704 2.21346 21.649 3.3749 21.649C4.53635 21.649 5.48129 20.704 5.48129 19.5426C5.48129 18.6273 4.89426 17.8468 4.07705 17.557V14.7556L10.2426 19.3114L9.2072 28.7872H6.31912C5.93131 28.7872 5.61697 29.1016 5.61697 29.4894V32.2978C5.61697 32.6857 5.93131 33 6.31912 33H26.6808C27.0686 33 27.383 32.6857 27.383 32.2978V29.4894C27.383 29.1016 27.0686 28.7872 26.6808 28.7872H23.7927L22.7573 19.3114L23.8636 18.494C24.1755 18.2636 24.2415 17.8239 24.0111 17.512C23.7806 17.2002 23.3409 17.1341 23.0291 17.3646L22.5809 17.6958L22.1843 14.0659H28.923V17.5569C28.1058 17.8467 27.5188 18.6271 27.5188 19.5425C27.5188 20.704 28.4637 21.6489 29.6252 21.6489C30.7866 21.6489 31.7316 20.704 31.7316 19.5425C31.7314 18.6272 31.1444 17.8468 30.3272 17.557ZM26.758 8.80881C27.1452 8.80881 27.4602 9.12379 27.4602 9.51096C27.4602 9.89813 27.1452 10.2131 26.758 10.2131C26.3709 10.2131 26.0559 9.89813 26.0559 9.51096C26.056 9.12379 26.3709 8.80881 26.758 8.80881ZM6.24191 10.213C5.85474 10.213 5.53975 9.89807 5.53975 9.5109C5.53975 9.12373 5.85474 8.80874 6.24191 8.80874C6.62908 8.80874 6.94406 9.12373 6.94406 9.5109C6.94399 9.89813 6.62901 10.213 6.24191 10.213ZM3.3749 20.2447C2.98773 20.2447 2.67275 19.9297 2.67275 19.5425C2.67275 19.1553 2.98773 18.8404 3.3749 18.8404C3.76207 18.8404 4.07705 19.1553 4.07705 19.5425C4.07705 19.9297 3.76207 20.2447 3.3749 20.2447ZM24.4292 5.15773L21.4283 7.14805L21.2108 5.15773H24.4292ZM20.817 14.4817L21.1734 17.7433L17.9796 16.0161L20.817 14.4817ZM12.52 19.6947H20.487L16.5035 24.3715L12.52 19.6947ZM18.42 28.7872H14.5869L16.5035 26.5371L18.42 28.7872ZM19.2329 18.2904H13.774L16.5035 16.8144L19.2329 18.2904ZM14.3732 14.0659H18.6337L16.5035 15.2179L14.3732 14.0659ZM20.0746 7.68829H18.1219C17.7341 7.68829 17.4198 8.00263 17.4198 8.39044C17.4198 8.77826 17.7341 9.0926 18.1219 9.0926H20.2282L20.5576 12.1077L13.7325 8.42886L19.8375 5.51828L20.0746 7.68829ZM19.388 1.40424L19.5889 3.24289L15.9418 1.40424H19.388ZM13.2017 5.15773H15.407C15.7948 5.15773 16.1092 4.84339 16.1092 4.45558C16.1092 4.06777 15.7948 3.75343 15.407 3.75343H13.3553L13.5707 1.78142L18.8402 4.43798L12.9749 7.23428L13.2017 5.15773ZM12.7291 9.48325L18.6258 12.6617H12.3818L12.7291 9.48325ZM12.1834 14.4782L15.0274 16.0161L11.8262 17.7473L12.1834 14.4782ZM8.57085 5.15773H11.7891L11.5717 7.14798L8.57085 5.15773ZM11.5066 20.6707L15.5811 25.4543L12.7423 28.7872H10.6198L11.5066 20.6707ZM5.50662 14.0659H10.8158L10.4191 17.6958L5.50662 14.0659ZM25.9787 30.1915V31.5958H7.02127V30.1915H25.9787ZM22.3801 28.7872H20.2646L17.4258 25.4543L21.4941 20.678L22.3801 28.7872ZM29.625 20.2447C29.2379 20.2447 28.9229 19.9297 28.9229 19.5425C28.9229 19.1553 29.2379 18.8404 29.625 18.8404C30.0122 18.8404 30.3272 19.1553 30.3272 19.5425C30.3272 19.9297 30.0122 20.2447 29.625 20.2447Z" fill="white"/>
<path d="M25.5724 15.5152L25.432 15.5854C25.0852 15.7588 24.9446 16.1805 25.118 16.5274C25.241 16.7734 25.489 16.9157 25.7465 16.9157C25.852 16.9157 25.9592 16.8918 26.06 16.8414L26.2004 16.7712C26.5472 16.5977 26.6878 16.1759 26.5144 15.8291C26.341 15.4824 25.9194 15.3418 25.5724 15.5152Z" fill="white"/>
</svg>
