<svg width="34" height="34" viewBox="0 0 34 34" fill="none" xmlns="http://www.w3.org/2000/svg">
<path d="M32.9214 0H1.07861V20.2219H5.01213V24.0545C5.01213 28.5782 7.28129 33.1836 7.37787 33.3774L7.68813 34H26.3119L26.6222 33.3774C26.7188 33.1836 28.9879 28.5782 28.9879 24.0545V20.2219H32.9214V0ZM30.6737 5.96734C28.8326 5.54019 27.3812 4.08869 26.9541 2.24773H30.6737V5.96734ZM24.6643 17.9742H11.6055V15.1739C11.6055 13.3561 10.1266 11.8772 8.3088 11.8772C7.3688 11.8772 6.52006 12.2733 5.91894 12.9066C5.12415 12.4292 4.24386 12.1111 3.32634 11.9668V8.2571C6.4097 7.77316 8.85177 5.33108 9.33571 2.24773H24.6643C25.1482 5.33108 27.5902 7.77316 30.6737 8.2571V11.9649C27.5903 12.4487 25.1482 14.8908 24.6643 17.9742ZM7.04595 2.24773C6.61881 4.08869 5.1673 5.54019 3.32634 5.96734V2.24773H7.04595ZM3.32634 17.9742V14.2534C3.93038 14.3933 4.50355 14.6462 5.01685 14.9988C5.01378 15.0568 5.01213 15.1151 5.01213 15.1739V17.9742H3.32634ZM9.10599 31.7523C8.52593 30.4153 7.25986 27.1429 7.25986 24.0545V15.1739C7.25986 14.5955 7.73038 14.1249 8.3088 14.1249C8.88721 14.1249 9.35774 14.5955 9.35774 15.1739V25.4666H10.4816C14.1852 25.4666 17.2629 28.1981 17.806 31.7523H9.10599ZM26.7402 24.0545C26.7402 27.1431 25.4739 30.4158 24.894 31.7523H20.0738C19.5584 27.3231 16.0345 23.7993 11.6055 23.2839V20.2219H26.7402V24.0545ZM26.9541 17.9742C27.3812 16.1332 28.8326 14.6817 30.6737 14.2546V17.9742H26.9541Z" fill="white"/>
<path d="M17 5.05371C14.2113 5.05371 11.9426 7.32242 11.9426 10.1111C11.9426 12.8998 14.2113 15.1685 17 15.1685C19.7887 15.1685 22.0574 12.8998 22.0574 10.1111C22.0574 7.32242 19.7887 5.05371 17 5.05371ZM17 12.9208C15.4507 12.9208 14.1904 11.6604 14.1904 10.1111C14.1904 8.56181 15.4507 7.30144 17 7.30144C18.5493 7.30144 19.8097 8.56181 19.8097 10.1111C19.8097 11.6604 18.5493 12.9208 17 12.9208Z" fill="white"/>
</svg>
