<svg width="246" height="60" viewBox="0 0 246 60" fill="none" xmlns="http://www.w3.org/2000/svg">
<g clip-path="url(#clip0_72_93)">
<path d="M49.6446 2.21797C43.9639 0.739321 37.7892 0 31.3675 0C24.9458 0 18.771 0.739321 13.2139 2.21797C5.18675 8.25575 0 18.2366 0 29.4496C0 40.6627 5.18675 50.6435 13.2139 56.6813C18.771 58.1599 24.9458 58.8993 31.3675 58.8993C37.7892 58.8993 43.9639 58.1599 49.521 56.6813C57.5481 50.6435 62.7349 40.6627 62.7349 29.4496C62.7349 18.2366 57.5481 8.25575 49.6446 2.21797ZM8.89156 44.7289C6.66868 40.9091 4.81627 35.7338 4.81627 29.4496C4.81627 23.0422 6.66868 17.8669 9.01507 14.0471H32.6024C37.9127 14.0471 40.1356 19.7152 40.259 20.0849H17.7831C17.7831 20.0849 15.5602 24.7673 15.5602 29.3264C15.5602 33.7623 17.7831 38.5679 17.7831 38.5679H40.3825C40.259 38.9375 38.0361 44.6056 32.7259 44.6056H8.89156V44.7289ZM47.4217 52.3685C42.3585 53.6007 36.9247 54.2168 31.3675 54.2168C25.8102 54.2168 20.3765 53.6007 15.3132 52.3685C14.4488 51.6293 13.4608 50.7667 12.4729 49.6578H32.6024C44.4578 49.6578 46.8042 34.0088 46.8042 34.0088H21.1175C20.6235 32.6534 20.3765 31.0515 20.3765 29.5729C20.3765 27.971 20.6235 26.4923 21.1175 25.1369H46.8042C46.8042 25.1369 44.4578 9.48795 32.6024 9.48795H12.5964C13.5843 8.37897 14.5724 7.51643 15.3132 6.90033C20.3765 5.66813 25.8102 5.05203 31.3675 5.05203C36.9247 5.05203 42.3585 5.66813 47.4217 6.90033C51.25 9.98084 57.9187 17.4972 57.9187 29.696C57.9187 39.0608 53.5964 47.1933 47.4217 52.3685Z" fill="#005776"/>
<path d="M183.882 13.308C182.276 13.1848 181.29 13.1848 179.807 13.308C176.967 13.5544 174.868 16.5117 174.868 19.9619C174.868 23.5353 177.09 26.3693 179.807 26.6157C181.29 26.739 182.401 26.739 183.759 26.6157C186.599 26.3693 188.823 23.5353 188.823 19.9619C188.946 16.3885 186.722 13.5544 183.882 13.308ZM179.807 23.905C178.696 23.0423 177.955 21.5637 177.955 19.9619C177.955 18.36 178.819 16.8814 179.931 16.0188C180.672 15.8957 181.536 15.8957 182.276 15.8957C182.894 15.8957 183.512 15.8957 184.007 15.8957C185.118 16.7582 185.981 18.2367 185.981 19.8386C185.981 21.4405 185.118 22.9192 184.007 23.7817C183.512 23.7817 182.894 23.7817 182.276 23.7817C181.413 24.0281 180.548 23.905 179.807 23.905ZM89.2861 32.6535C90.027 32.6535 92.8673 32.6535 93.4849 32.6535V35.3644C92.8673 35.3644 90.027 35.3644 89.2861 35.3644C88.4215 35.3644 87.6807 35.3644 86.9397 35.4876C85.9517 36.3502 85.2107 37.7055 85.2107 39.1842C85.2107 40.6628 85.9517 42.0183 86.9397 42.8808C87.6807 42.8808 88.5451 43.0041 89.2861 43.0041C90.027 43.0041 92.8673 43.0041 93.4849 43.0041V45.7148C92.8673 45.7148 90.027 45.7148 89.2861 45.7148C88.6686 45.7148 88.0512 45.7148 87.4336 45.7148C87.3102 45.7148 87.1866 45.7148 87.1866 45.7148H87.0632C84.3463 45.4684 82.2469 42.6344 82.2469 39.3074C82.2469 35.8572 84.3463 33.1465 87.0632 32.9001C87.8041 32.6535 88.5451 32.6535 89.2861 32.6535ZM93.6083 19.9619C93.6083 23.412 91.509 26.1229 88.7921 26.3693C88.0512 26.3693 87.3102 26.4926 86.5692 26.4926C85.8282 26.4926 82.9878 26.4926 82.3704 26.4926V23.7817C82.9878 23.7817 85.8282 23.7817 86.5692 23.7817C87.4336 23.7817 88.1746 23.7817 88.9156 23.6584C89.5331 23.0423 90.1505 22.3031 90.3975 21.3173H84.8403V18.6064H90.3975C90.1505 17.6207 89.5331 16.7582 88.9156 16.1421C88.1746 16.1421 87.3102 16.0188 86.5692 16.0188C85.8282 16.0188 82.9878 16.0188 82.3704 16.0188V13.5544C82.9878 13.5544 85.8282 13.5544 86.5692 13.5544C87.1866 13.5544 87.8041 13.5544 88.4216 13.5544C88.5451 13.5544 88.5451 13.5544 88.6686 13.5544H88.7921C91.509 13.8008 93.6083 16.6349 93.6083 19.9619ZM114.355 26.2461C113.985 24.6442 113.738 22.4262 113.738 19.9619C113.738 17.4975 113.985 15.2796 114.355 13.6777H117.443H124.482V16.3885H117.072C116.949 17.0046 116.949 17.7439 116.949 18.4833H123.494V21.1941H116.949C116.949 21.9334 117.072 22.7959 117.072 23.412H124.605V26.1229H114.849H114.355V26.2461ZM132.385 26.2461H129.298V13.6777H132.385V18.4833H133.991L137.943 13.6777H141.401L136.337 19.8386L142.019 26.1229H138.313L133.991 21.1941H132.385V26.2461ZM105.958 13.6777H109.045V26.2461H105.958V16.3885H101.512L99.289 26.2461H96.3253L99.0421 13.9241V13.6777H102.129H105.958ZM148.809 16.3885H144.118V13.6777H148.809H151.898H156.59V16.3885H151.898V26.2461H148.809V16.3885ZM209.816 23.2889H211.915V29.0801H208.828V26.2461H206.729H202.776H199.689H195.738H192.651V23.5353V13.6777H195.738V23.5353H199.689V13.6777H202.776V23.5353H206.729V13.6777H209.816V23.2889ZM246 16.3885H241.307V26.2461H238.22V16.3885H233.403V13.6777H238.097H241.184H245.877V16.3885H246ZM226.118 13.6777H229.205V26.2461H226.118V17.7439L219.696 26.2461H216.608V13.6777H219.696V22.1798L226.118 13.6777ZM124.605 33.0232H127.693V45.5917H124.605V37.5824L120.654 43.3737L116.702 37.7055V45.7148H113.614V33.0232H116.702L120.654 38.5682L124.605 33.0232ZM169.927 32.9001H168.939H166.964L162.271 45.4684H165.235L165.976 43.3737H172.769L173.509 45.4684H176.472L171.78 32.9001H169.927ZM167.087 40.6628L168.939 35.6108H169.927L171.78 40.6628H167.087ZM103.982 32.9001H102.994H101.018L96.3253 45.4684H99.289L100.03 43.3737H106.822L107.563 45.4684H110.527L105.834 32.9001H103.982ZM101.142 40.6628L102.994 35.6108H103.982L105.834 40.6628H101.142ZM138.436 32.9001H137.448H135.473L130.904 45.4684H133.867L134.608 43.3737H141.401L142.142 45.4684H145.106L140.413 32.9001H138.436ZM135.596 40.6628L137.448 35.6108H138.436L140.29 40.6628H135.596ZM163.382 24.1514H167.581C168.446 24.1514 169.681 23.7817 169.681 23.7817C169.681 23.7817 171.78 22.3031 171.78 18.8528C171.78 15.4027 169.681 14.0472 169.681 14.0472C169.681 14.0472 168.446 13.6777 167.335 13.6777H163.505H160.418V24.0281V26.1229H163.505V24.1514H163.382ZM163.382 16.3885H167.21C167.458 16.3885 167.828 16.3885 168.075 16.5117C168.323 16.8814 168.693 17.9903 168.693 18.9761C168.693 20.0852 168.323 21.0708 168.075 21.4405C167.952 21.4405 167.705 21.4405 167.581 21.4405H163.382V16.3885ZM158.073 33.2696C158.073 33.2696 156.837 32.9001 155.726 32.9001H148.809V43.2505V45.3453H151.898V43.2505H156.097C156.96 43.2505 158.196 42.8808 158.196 42.8808C158.196 42.8808 160.295 41.4022 160.295 37.9521C160.172 34.7483 158.073 33.2696 158.073 33.2696ZM156.467 40.6628C156.344 40.6628 156.097 40.6628 155.972 40.6628H151.898V35.6108H155.726C155.972 35.6108 156.344 35.6108 156.59 35.7341C156.837 36.1037 157.208 37.2127 157.208 38.1985C157.085 39.1842 156.837 40.2932 156.467 40.6628Z" fill="#005776"/>
</g>
<defs>
<clipPath id="clip0_72_93">
<rect width="246" height="60" fill="white"/>
</clipPath>
</defs>
</svg>
