<svg width="30" height="30" viewBox="0 0 30 30" fill="none" xmlns="http://www.w3.org/2000/svg">
<g clip-path="url(#clip0_25_36)">
<path d="M29.8988 28.7252V7.49425C29.8988 6.98555 29.6413 6.53813 29.2001 6.34813L15.4894 0.096532C15.1707 -0.0321773 14.7907 -0.0321773 14.472 0.096532L0.761421 6.34813C0.314003 6.53813 0.0627136 6.98555 0.0627136 7.49425V28.7252C0.0627136 29.4239 0.638841 30 1.33755 30C2.03626 30 2.61238 29.4239 2.61238 28.7252V8.32167L15.1094 2.6462L27.5391 8.32167V28.7252C27.5391 29.4239 28.1152 30 28.8139 30C29.5126 30 30.0949 29.43 29.8988 28.7252Z" fill="white"/>
<path d="M19.1914 17.503C19.8901 17.503 20.4662 16.9268 20.4662 16.2281V8.00298C20.4662 7.30428 19.8901 6.72815 19.1914 6.72815H10.9662C10.2675 6.72815 9.69141 7.30428 9.69141 8.00298V16.2281C9.69141 16.9268 10.2675 17.503 10.9662 17.503H19.1914ZM12.2411 9.34524H17.9165V15.0207H12.2411V9.34524Z" fill="white"/>
<path d="M13.0685 19.2252H4.84335C4.14464 19.2252 3.56851 19.8013 3.56851 20.5001V28.7252C3.56851 29.4239 4.14464 30 4.84335 30H13.0685C13.7672 30 14.3433 29.4239 14.3433 28.7252V20.5001C14.3433 19.8013 13.7672 19.2252 13.0685 19.2252ZM11.7937 27.5178H6.11818V21.8423H11.7937V27.5178Z" fill="white"/>
<path d="M25.3081 19.2252H17.083C16.3843 19.2252 15.8082 19.8013 15.8082 20.5001V28.7252C15.8082 29.4239 16.3843 30 17.083 30H25.3081C26.0068 30 26.583 29.4239 26.583 28.7252V20.5001C26.583 19.8013 26.013 19.2252 25.3081 19.2252ZM24.0333 27.5178H18.3578V21.8423H24.0333V27.5178Z" fill="white"/>
</g>
<defs>
<clipPath id="clip0_25_36">
<rect width="30" height="30" fill="white"/>
</clipPath>
</defs>
</svg>
