<svg width="34" height="34" viewBox="0 0 34 34" fill="none" xmlns="http://www.w3.org/2000/svg">
<g clip-path="url(#clip0_25_58)">
<path d="M17 1.41669L28.6407 4.00352C29.2882 4.14802 29.75 4.72177 29.75 5.38619V19.5344C29.75 22.3763 28.3291 25.0311 25.9647 26.6064L17 32.5834L8.03533 26.6064C5.6695 25.0297 4.25 22.3763 4.25 19.5359V5.38619C4.25 4.72177 4.71183 4.14802 5.35925 4.00352L17 1.41669ZM17 4.31944L7.08333 6.52235V19.5344C7.08333 21.4285 8.02967 23.1979 9.60642 24.2491L17 29.1791L24.3936 24.2491C25.9703 23.1979 26.9167 21.4299 26.9167 19.5359V6.52235L17 4.32085V4.31944ZM23.307 11.6479L25.3116 13.651L16.2959 22.6667L10.285 16.6558L12.2882 14.6526L16.2945 18.6589L23.307 11.6464V11.6479Z" fill="white"/>
</g>
<defs>
<clipPath id="clip0_25_58">
<rect width="34" height="34" fill="white"/>
</clipPath>
</defs>
</svg>
