<svg width="26" height="26" viewBox="0 0 26 26" fill="none" xmlns="http://www.w3.org/2000/svg">
<path d="M15.9465 9.52252L11.299 14.1809L9.51151 12.3934C9.41439 12.2799 9.29488 12.1878 9.16048 12.1228C9.02607 12.0578 8.87968 12.0213 8.73048 12.0155C8.58129 12.0097 8.43251 12.0349 8.29349 12.0893C8.15447 12.1438 8.02821 12.2264 7.92264 12.332C7.81706 12.4376 7.73445 12.5638 7.67998 12.7028C7.62552 12.8419 7.60038 12.9906 7.60614 13.1398C7.61191 13.289 7.64845 13.4354 7.71347 13.5698C7.7785 13.7042 7.8706 13.8237 7.98401 13.9209L10.5298 16.4775C10.6311 16.5779 10.7511 16.6574 10.8831 16.7113C11.0151 16.7652 11.1564 16.7925 11.299 16.7917C11.5832 16.7905 11.8556 16.6777 12.0573 16.4775L17.474 11.0609C17.5755 10.9601 17.6561 10.8403 17.7111 10.7083C17.7661 10.5763 17.7945 10.4347 17.7945 10.2917C17.7945 10.1487 17.7661 10.0071 17.7111 9.87506C17.6561 9.74305 17.5755 9.62323 17.474 9.52252C17.271 9.32075 16.9965 9.20749 16.7103 9.20749C16.4241 9.20749 16.1495 9.32075 15.9465 9.52252ZM12.9998 2.16669C10.8572 2.16669 8.7627 2.80205 6.98116 3.99243C5.19963 5.18281 3.8111 6.87475 2.99115 8.85428C2.1712 10.8338 1.95666 13.012 2.37467 15.1135C2.79267 17.215 3.82445 19.1453 5.33952 20.6603C6.85459 22.1754 8.7849 23.2072 10.8864 23.6252C12.9878 24.0432 15.166 23.8287 17.1456 23.0087C19.1251 22.1888 20.817 20.8002 22.0074 19.0187C23.1978 17.2372 23.8332 15.1427 23.8332 13C23.8332 11.5774 23.553 10.1686 23.0085 8.85428C22.4641 7.53992 21.6661 6.34566 20.6602 5.3397C19.6542 4.33373 18.4599 3.53575 17.1456 2.99133C15.8312 2.4469 14.4225 2.16669 12.9998 2.16669ZM12.9998 21.6667C11.2857 21.6667 9.61013 21.1584 8.1849 20.2061C6.75967 19.2538 5.64885 17.9002 4.99289 16.3166C4.33693 14.733 4.1653 12.9904 4.4997 11.3092C4.83411 9.62807 5.65953 8.08382 6.87158 6.87176C8.08364 5.65971 9.62789 4.83429 11.3091 4.49988C12.9902 4.16548 14.7328 4.33711 16.3164 4.99306C17.9001 5.64902 19.2536 6.75985 20.2059 8.18508C21.1582 9.6103 21.6665 11.2859 21.6665 13C21.6665 15.2986 20.7534 17.503 19.1281 19.1283C17.5028 20.7536 15.2984 21.6667 12.9998 21.6667Z" fill="#09B2B2"/>
</svg>
