<svg width="51" height="60" viewBox="0 0 51 60" fill="none" xmlns="http://www.w3.org/2000/svg">
<g clip-path="url(#clip0_212_854)">
<path d="M31.4297 12.8994C31.4297 13.2544 32.9833 13.4911 35.0148 13.4911C36.9269 13.4911 38.6 13.2544 38.6 12.8994C38.6 12.6627 38.0025 12.5444 37.1659 12.426C37.1659 12.3077 37.0464 12.1893 37.0464 12.071C37.0464 11.9527 37.0464 11.8343 37.1659 11.716C38.0025 11.5976 38.6 11.4793 38.6 11.2426C38.6 11.0059 38.0025 10.8876 37.1659 10.7692C37.0464 10.7692 37.0464 10.6509 37.0464 10.5325C37.0464 10.4142 37.0464 10.2959 37.1659 10.1775C38.0025 10.0592 38.6 9.94083 38.6 9.70414C38.6 9.46746 38.0025 9.34911 37.1659 9.23077C37.0464 9.23077 37.0464 9.11243 37.0464 8.99408C37.0464 8.87574 37.0464 8.7574 37.1659 8.63905C38.0025 8.52071 38.6 8.40237 38.6 8.16568C38.6 7.92899 38.0025 7.81065 37.1659 7.69231C37.0464 7.57396 37.0464 7.45562 37.0464 7.33728C37.0464 7.21894 37.0464 7.10059 37.0464 6.98225C37.8829 6.86391 38.4805 6.74556 38.4805 6.50888C38.4805 6.27219 37.8829 6.15385 37.0464 6.0355C37.0464 6.0355 37.0464 5.91716 37.0464 5.79882C37.0464 5.68047 37.0464 5.56213 37.1659 5.44379C38.0025 5.32544 38.6 5.2071 38.6 4.97041C38.6 4.73373 38.0025 4.61538 37.1659 4.49704C37.0464 4.49704 37.0464 4.3787 37.0464 4.26035C37.0464 4.14201 37.0464 4.02367 37.1659 3.90533C38.0025 3.78698 38.6 3.66864 38.6 3.43195C38.6 3.19527 38.0025 3.07692 37.1659 2.95858C37.2854 2.84024 37.2854 2.72189 37.2854 2.48521C37.2854 2.01183 36.9269 1.77515 36.5684 1.77515H35.8514V0.118343L35.7319 0H34.2978C34.1783 0 34.1783 0.118343 34.1783 0.118343V1.6568H33.4613C33.1028 1.6568 32.7442 2.01183 32.7442 2.36686C32.7442 2.48521 32.7442 2.72189 32.8637 2.84024C31.9077 2.95858 31.4297 3.07692 31.4297 3.31361C31.4297 3.5503 32.0272 3.66864 32.8637 3.78698C32.8637 3.90533 32.9833 4.02367 32.9833 4.14201C32.9833 4.26035 32.9833 4.3787 32.8637 4.49704C32.0272 4.61538 31.4297 4.73373 31.4297 4.97041C31.4297 5.2071 32.0272 5.32544 32.8637 5.44379C32.8637 5.56213 32.9833 5.68047 32.9833 5.79882C32.9833 5.91716 32.9833 6.0355 32.8637 6.15385C32.0272 6.27219 31.4297 6.39053 31.4297 6.62722C31.4297 6.86391 32.0272 6.98225 32.8637 7.10059C32.8637 7.21894 32.9833 7.33728 32.9833 7.45562C32.9833 7.57397 32.9833 7.69231 32.8637 7.81065C32.0272 7.92899 31.4297 8.04734 31.4297 8.28402C31.4297 8.52071 32.0272 8.63905 32.8637 8.7574C32.8637 8.87574 32.9833 8.99408 32.9833 9.11243C32.9833 9.23077 32.9833 9.34911 32.8637 9.46746C32.0272 9.5858 31.4297 9.70414 31.4297 9.94083C31.4297 10.1775 32.0272 10.2959 32.8637 10.4142C32.8637 10.5325 32.9833 10.6509 32.9833 10.7692C32.9833 10.8876 32.9833 11.0059 32.8637 11.1243C32.0272 11.2426 31.4297 11.3609 31.4297 11.5976C31.4297 11.8343 32.0272 11.9527 32.8637 12.071C32.8637 12.1893 32.9833 12.3077 32.9833 12.426C32.9833 12.5444 32.9833 12.6627 32.8637 12.7811C32.0272 12.5444 31.4297 12.6627 31.4297 12.8994Z" fill="url(#paint0_linear_212_854)"/>
<path d="M21.9883 12.8994C21.9883 13.2544 23.5418 13.4911 25.5734 13.4911C27.605 13.4911 29.1586 13.2544 29.1586 12.8994C29.1586 12.6627 28.561 12.5444 27.7245 12.426C27.7245 12.3077 27.605 12.1893 27.605 12.071C27.605 11.9527 27.605 11.8343 27.7245 11.716C28.561 11.5976 29.1586 11.4793 29.1586 11.2426C29.1586 11.0059 28.561 10.8876 27.7245 10.7692C27.7245 10.6509 27.605 10.5325 27.605 10.4142C27.605 10.2959 27.605 10.1775 27.7245 10.0592C28.561 9.94083 29.1586 9.82249 29.1586 9.5858C29.1586 9.34911 28.561 9.23077 27.7245 9.11243C27.7245 8.99408 27.605 8.87574 27.605 8.7574C27.605 8.63905 27.605 8.52071 27.7245 8.40237C28.561 8.28402 29.1586 8.16568 29.1586 7.92899C29.1586 7.69231 28.561 7.57397 27.7245 7.45562C27.7245 7.33728 27.605 7.21894 27.605 7.10059C27.605 6.98225 27.605 6.86391 27.7245 6.74556C28.561 6.62722 29.1586 6.50888 29.1586 6.27219C29.1586 6.0355 28.561 5.91716 27.7245 5.79882C27.7245 5.68047 27.605 5.56213 27.605 5.44379C27.605 5.32544 27.605 5.2071 27.7245 5.08876C28.561 4.97041 29.1586 4.85207 29.1586 4.61539C29.1586 4.3787 28.561 4.26035 27.7245 4.14201C27.7245 4.02367 27.605 3.90533 27.605 3.78698C27.605 3.66864 27.605 3.5503 27.7245 3.43195C28.561 3.31361 29.1586 3.19527 29.1586 2.95858C29.1586 2.72189 28.561 2.60355 27.7245 2.48521C27.844 2.36686 27.844 2.24852 27.844 2.01183C27.844 1.53846 27.4855 1.30178 27.127 1.30178H26.5295V0.118343C26.41 0.118343 26.2905 0 26.2905 0H24.8564C24.7369 0 24.7369 0.118343 24.7369 0.118343V1.6568H24.1394C23.7809 1.6568 23.4223 2.01183 23.4223 2.36686C23.4223 2.48521 23.4223 2.72189 23.5418 2.84024C22.5858 2.95858 22.1078 3.07692 22.1078 3.31361C22.1078 3.5503 22.7053 3.66864 23.5418 3.78698C23.5418 3.90533 23.6613 4.02367 23.6613 4.14201C23.6613 4.26035 23.6614 4.3787 23.5418 4.49704C22.7053 4.61538 22.1078 4.73373 22.1078 4.97041C22.1078 5.2071 22.7053 5.32544 23.5418 5.44379C23.5418 5.56213 23.6613 5.68047 23.6613 5.79882C23.6613 5.91716 23.6614 6.0355 23.5418 6.15385C22.7053 6.27219 22.1078 6.39053 22.1078 6.62722C22.1078 6.86391 22.7053 6.98225 23.5418 7.10059C23.5418 7.21894 23.6613 7.33728 23.6613 7.45562C23.6613 7.57397 23.6614 7.69231 23.5418 7.81065C22.7053 7.92899 22.1078 8.04734 22.1078 8.28402C22.1078 8.52071 22.7053 8.63905 23.5418 8.7574C23.5418 8.87574 23.6613 8.99408 23.6613 9.11243C23.6613 9.23077 23.6614 9.34911 23.5418 9.46746C22.7053 9.5858 22.1078 9.70414 22.1078 9.94083C22.1078 10.1775 22.7053 10.2959 23.5418 10.4142C23.5418 10.5325 23.6613 10.6509 23.6613 10.7692C23.6613 10.8876 23.6614 11.0059 23.5418 11.1243C22.7053 11.2426 22.1078 11.3609 22.1078 11.5976C22.1078 11.8343 22.7053 11.9527 23.5418 12.071C23.5418 12.1893 23.6613 12.3077 23.6613 12.426C23.6613 12.5444 23.6614 12.6627 23.5418 12.7811C22.4663 12.5444 21.9883 12.6627 21.9883 12.8994Z" fill="url(#paint1_linear_212_854)"/>
<path d="M12.5488 12.8994C12.5488 13.2544 14.1024 13.4911 16.134 13.4911C18.0461 13.4911 19.7191 13.2544 19.7191 12.8994C19.7191 12.6627 19.1216 12.5444 18.2851 12.426C18.2851 12.3077 18.1656 12.1893 18.1656 12.071C18.1656 11.9527 18.1656 11.8343 18.2851 11.716C19.1216 11.5976 19.7191 11.4793 19.7191 11.2426C19.7191 11.0059 19.1216 10.8876 18.2851 10.7692C18.2851 10.6509 18.1656 10.5325 18.1656 10.4142C18.1656 10.2959 18.1656 10.1775 18.2851 10.0592C19.1216 9.94083 19.7191 9.82249 19.7191 9.5858C19.7191 9.34911 19.1216 9.23077 18.2851 9.11243C18.2851 8.99408 18.1656 8.87574 18.1656 8.7574C18.1656 8.63905 18.1656 8.52071 18.2851 8.40237C19.1216 8.28402 19.7191 8.16568 19.7191 7.92899C19.7191 7.69231 19.1216 7.57397 18.2851 7.45562C18.2851 7.33728 18.1656 7.21894 18.1656 7.10059C18.1656 6.98225 18.1656 6.86391 18.2851 6.74556C19.1216 6.62722 19.7191 6.50888 19.7191 6.27219C19.7191 6.0355 19.1216 5.91716 18.2851 5.79882C18.2851 5.68047 18.1656 5.56213 18.1656 5.44379C18.1656 5.32544 18.1656 5.2071 18.2851 5.08876C19.1216 4.97041 19.7191 4.85207 19.7191 4.61539C19.7191 4.3787 19.1216 4.26035 18.2851 4.14201C18.2851 4.02367 18.1656 3.90533 18.1656 3.78698C18.1656 3.66864 18.1656 3.5503 18.2851 3.43195C19.1216 3.31361 19.7191 3.19527 19.7191 2.95858C19.7191 2.72189 19.1216 2.60355 18.2851 2.48521C18.4046 2.36686 18.4046 2.24852 18.4046 2.01183C18.4046 1.53846 18.0461 1.30178 17.6875 1.30178H17.09V0.118343C17.09 0 16.9705 0 16.9705 0H15.5364C15.4169 0 15.4169 0.118343 15.4169 0.118343V1.6568H14.8194C14.4609 1.6568 14.1024 2.01183 14.1024 2.36686C14.1024 2.48521 14.1024 2.72189 14.2219 2.84024C13.2659 2.95858 12.7878 3.07692 12.7878 3.31361C12.7878 3.5503 13.3854 3.66864 14.2219 3.78698C14.2219 3.90533 14.3414 4.02367 14.3414 4.14201C14.3414 4.26035 14.3414 4.3787 14.2219 4.49704C13.3854 4.61538 12.7878 4.73373 12.7878 4.97041C12.7878 5.2071 13.3854 5.32544 14.2219 5.44379C14.2219 5.56213 14.3414 5.68047 14.3414 5.79882C14.3414 5.91716 14.3414 6.0355 14.2219 6.15385C13.3854 6.27219 12.7878 6.39053 12.7878 6.62722C12.7878 6.86391 13.3854 6.98225 14.2219 7.10059C14.2219 7.21894 14.3414 7.33728 14.3414 7.45562C14.3414 7.57397 14.3414 7.69231 14.2219 7.81065C13.3854 7.92899 12.7878 8.04734 12.7878 8.28402C12.7878 8.52071 13.3854 8.63905 14.2219 8.7574C14.2219 8.87574 14.3414 8.99408 14.3414 9.11243C14.3414 9.23077 14.3414 9.34911 14.2219 9.46746C13.3854 9.5858 12.7878 9.70414 12.7878 9.94083C12.7878 10.1775 13.3854 10.2959 14.2219 10.4142C14.2219 10.5325 14.3414 10.6509 14.3414 10.7692C14.3414 10.8876 14.3414 11.0059 14.2219 11.1243C13.3854 11.2426 12.7878 11.3609 12.7878 11.5976C12.7878 11.8343 13.3854 11.9527 14.2219 12.071C14.2219 12.1893 14.3414 12.3077 14.3414 12.426C14.3414 12.5444 14.3414 12.6627 14.2219 12.7811C13.0268 12.5444 12.5488 12.6627 12.5488 12.8994Z" fill="url(#paint2_linear_212_854)"/>
<path d="M0 15.2663V17.1598H2.3901V18.3432H4.66069V17.1598H8.72385V18.3432H10.8749V17.1598H14.9381V18.3432H17.2087V17.1598H21.2719V18.3432H23.423V17.1598H27.4861V18.3432H29.7567V17.1598H33.8199V18.3432H36.0905V17.1598H40.1536V18.3432H42.3047V17.1598H46.3679V18.3432H48.6385V17.1598H51.0286V15.2663H0Z" fill="url(#paint3_linear_212_854)"/>
<path d="M40.2724 55.2663V52.7811H45.6501V20.2367H5.37695V52.7811H10.7547V55.2663H40.2724ZM40.5114 23.6686C40.5114 22.6036 40.9894 21.6568 41.7064 21.6568H43.021C43.6185 21.6568 44.0965 22.3669 44.216 23.3136H43.499C42.782 23.3136 42.1844 24.142 42.1844 25.2071V48.5207C42.1844 49.5858 42.782 50.4142 43.499 50.4142H43.8575C43.6185 50.7692 43.3795 51.0059 43.021 51.0059H41.5869C40.9894 51.0059 40.3919 50.1775 40.3919 48.9941V23.6686H40.5114ZM34.4166 23.6686C34.4166 22.6036 34.8946 21.6568 35.6117 21.6568H37.0457C37.6433 21.6568 38.1213 22.3669 38.2408 23.3136H37.5238C36.8067 23.3136 36.2092 24.142 36.2092 25.2071V48.5207C36.2092 49.5858 36.8067 50.4142 37.5238 50.4142H37.8823C37.6433 50.7692 37.4043 51.0059 37.0457 51.0059H35.6117C35.0142 51.0059 34.4166 50.1775 34.4166 48.9941V23.6686ZM29.1584 23.6686C29.1584 22.6036 29.6364 21.6568 30.3535 21.6568H31.7875C32.385 21.6568 32.8631 22.3669 32.9826 23.3136H32.2655C31.5485 23.3136 30.951 24.142 30.951 25.2071V48.5207C30.951 49.5858 31.5485 50.4142 32.2655 50.4142H32.6241C32.385 50.7692 32.146 51.0059 31.7875 51.0059H30.3535C29.7559 51.0059 29.1584 50.1775 29.1584 48.9941V23.6686ZM23.9002 23.6686C23.9002 22.6036 24.3782 21.6568 25.0953 21.6568H26.5293C27.1268 21.6568 27.6049 22.3669 27.7244 23.3136H27.0073C26.2903 23.3136 25.6928 24.142 25.6928 25.2071V48.5207C25.6928 49.5858 26.2903 50.4142 27.0073 50.4142H27.3658C27.1268 50.7692 26.8878 51.0059 26.5293 51.0059H25.0953C24.4977 51.0059 23.9002 50.1775 23.9002 48.9941V23.6686ZM18.642 23.6686C18.642 22.6036 19.12 21.6568 19.837 21.6568H21.2711C21.8686 21.6568 22.3466 22.3669 22.4661 23.3136H21.7491C21.0321 23.3136 20.4346 24.142 20.4346 25.2071V48.5207C20.4346 49.5858 21.0321 50.4142 21.7491 50.4142H22.1076C21.8686 50.7692 21.6296 51.0059 21.2711 51.0059H19.837C19.2395 51.0059 18.642 50.1775 18.642 48.9941V23.6686ZM13.3838 23.6686C13.3838 22.6036 13.8618 21.6568 14.5788 21.6568H16.0129C16.6104 21.6568 17.0884 22.3669 17.2079 23.3136H16.4909C15.7739 23.3136 15.1764 24.142 15.1764 25.2071V48.5207C15.1764 49.5858 15.7739 50.4142 16.4909 50.4142H16.7299C16.4909 50.7692 16.2519 51.0059 15.8934 51.0059H14.4593C13.8618 51.0059 13.2643 50.1775 13.2643 48.9941V23.6686H13.3838ZM10.6352 51.0059H9.32061C8.72309 51.0059 8.12556 50.1775 8.12556 48.9941V23.6686C8.12556 22.6036 8.60358 21.6568 9.32061 21.6568H10.7547C11.3522 21.6568 11.8302 22.3669 11.9497 23.3136H11.1132C10.3962 23.3136 9.79863 24.142 9.79863 25.2071V48.5207C9.79863 49.5858 10.3962 50.4142 11.1132 50.4142H11.4717C11.2327 50.7692 10.9937 51.0059 10.6352 51.0059Z" fill="url(#paint4_linear_212_854)"/>
<path d="M46.0097 56.213H5.01953V60H46.0097V56.213Z" fill="url(#paint5_linear_212_854)"/>
</g>
<defs>
<linearGradient id="paint0_linear_212_854" x1="30.6034" y1="12.1505" x2="39.2313" y2="3.43785" gradientUnits="userSpaceOnUse">
<stop stop-color="#09B2B2"/>
<stop offset="1" stop-color="#58D8DB"/>
</linearGradient>
<linearGradient id="paint1_linear_212_854" x1="21.1531" y1="12.1505" x2="29.7811" y2="3.43785" gradientUnits="userSpaceOnUse">
<stop stop-color="#09B2B2"/>
<stop offset="1" stop-color="#58D8DB"/>
</linearGradient>
<linearGradient id="paint2_linear_212_854" x1="11.7045" y1="12.1508" x2="20.3328" y2="3.43785" gradientUnits="userSpaceOnUse">
<stop stop-color="#09B2B2"/>
<stop offset="1" stop-color="#58D8DB"/>
</linearGradient>
<linearGradient id="paint3_linear_212_854" x1="12.2559" y1="29.3282" x2="38.5053" y2="2.82122" gradientUnits="userSpaceOnUse">
<stop stop-color="#09B2B2"/>
<stop offset="1" stop-color="#58D8DB"/>
</linearGradient>
<linearGradient id="paint4_linear_212_854" x1="7.23752" y1="54.6142" x2="43.4243" y2="18.0722" gradientUnits="userSpaceOnUse">
<stop stop-color="#09B2B2"/>
<stop offset="1" stop-color="#58D8DB"/>
</linearGradient>
<linearGradient id="paint5_linear_212_854" x1="14.3014" y1="69.1788" x2="36.5005" y2="46.7616" gradientUnits="userSpaceOnUse">
<stop stop-color="#09B2B2"/>
<stop offset="1" stop-color="#58D8DB"/>
</linearGradient>
<clipPath id="clip0_212_854">
<rect width="51" height="60" fill="white"/>
</clipPath>
</defs>
</svg>
