<svg width="343" height="72" viewBox="0 0 343 72" fill="none" xmlns="http://www.w3.org/2000/svg">
<g clip-path="url(#clip0_201_2)">
<path d="M36.3599 17.0493C36.3599 17.4635 38.1572 17.7396 40.5074 17.7396C42.7195 17.7396 44.655 17.4635 44.655 17.0493C44.655 16.7732 43.9637 16.6351 42.996 16.497C42.996 16.359 42.8577 16.2209 42.8577 16.0828C42.8577 15.9448 42.8577 15.8067 42.996 15.6686C43.9637 15.5306 44.655 15.3925 44.655 15.1164C44.655 14.8402 43.9637 14.7022 42.996 14.5641C42.8577 14.5641 42.8577 14.426 42.8577 14.288C42.8577 14.1499 42.8577 14.0118 42.996 13.8738C43.9637 13.7357 44.655 13.5976 44.655 13.3215C44.655 13.0454 43.9637 12.9073 42.996 12.7692C42.8577 12.7692 42.8577 12.6312 42.8577 12.4931C42.8577 12.355 42.8577 12.217 42.996 12.0789C43.9637 11.9408 44.655 11.8028 44.655 11.5266C44.655 11.2505 43.9637 11.1124 42.996 10.9744C42.8577 10.8363 42.8577 10.6982 42.8577 10.5602C42.8577 10.4221 42.8577 10.284 42.8577 10.146C43.8255 10.0079 44.5167 9.86982 44.5167 9.59369C44.5167 9.31755 43.8255 9.17949 42.8577 9.04142C42.8577 9.04142 42.8577 8.90335 42.8577 8.76529C42.8577 8.62722 42.8577 8.48915 42.996 8.35108C43.9637 8.21302 44.655 8.07495 44.655 7.79882C44.655 7.52268 43.9637 7.38462 42.996 7.24655C42.8577 7.24655 42.8577 7.10848 42.8577 6.97041C42.8577 6.83235 42.8577 6.69428 42.996 6.55621C43.9637 6.41815 44.655 6.28008 44.655 6.00394C44.655 5.72781 43.9637 5.58974 42.996 5.45168C43.1342 5.31361 43.1342 5.17554 43.1342 4.89941C43.1342 4.34714 42.7195 4.07101 42.3047 4.07101H41.4752V2.13807L41.3369 2H39.6779C39.5397 2 39.5397 2.13807 39.5397 2.13807V3.93294H38.7102C38.2954 3.93294 37.8807 4.34714 37.8807 4.76134C37.8807 4.89941 37.8807 5.17554 38.0189 5.31361C36.9129 5.45168 36.3599 5.58974 36.3599 5.86588C36.3599 6.14201 37.0512 6.28008 38.0189 6.41815C38.0189 6.55621 38.1572 6.69428 38.1572 6.83235C38.1572 6.97041 38.1572 7.10848 38.0189 7.24655C37.0512 7.38462 36.3599 7.52268 36.3599 7.79882C36.3599 8.07495 37.0512 8.21302 38.0189 8.35108C38.0189 8.48915 38.1572 8.62722 38.1572 8.76529C38.1572 8.90335 38.1572 9.04142 38.0189 9.17949C37.0512 9.31755 36.3599 9.45562 36.3599 9.73175C36.3599 10.0079 37.0512 10.146 38.0189 10.284C38.0189 10.4221 38.1572 10.5602 38.1572 10.6982C38.1572 10.8363 38.1572 10.9744 38.0189 11.1124C37.0512 11.2505 36.3599 11.3886 36.3599 11.6647C36.3599 11.9408 37.0512 12.0789 38.0189 12.217C38.0189 12.355 38.1572 12.4931 38.1572 12.6312C38.1572 12.7692 38.1572 12.9073 38.0189 13.0454C37.0512 13.1834 36.3599 13.3215 36.3599 13.5976C36.3599 13.8738 37.0512 14.0118 38.0189 14.1499C38.0189 14.288 38.1572 14.426 38.1572 14.5641C38.1572 14.7022 38.1572 14.8402 38.0189 14.9783C37.0512 15.1164 36.3599 15.2544 36.3599 15.5306C36.3599 15.8067 37.0512 15.9448 38.0189 16.0828C38.0189 16.2209 38.1572 16.359 38.1572 16.497C38.1572 16.6351 38.1572 16.7732 38.0189 16.9112C37.0512 16.6351 36.3599 16.7732 36.3599 17.0493Z" fill="url(#paint0_linear_201_2)"/>
<path d="M25.4381 17.0493C25.4381 17.4635 27.2354 17.7396 29.5857 17.7396C31.9359 17.7396 33.7332 17.4635 33.7332 17.0493C33.7332 16.7732 33.0419 16.6351 32.0742 16.497C32.0742 16.359 31.9359 16.2209 31.9359 16.0828C31.9359 15.9448 31.9359 15.8067 32.0742 15.6686C33.0419 15.5306 33.7332 15.3925 33.7332 15.1164C33.7332 14.8402 33.0419 14.7022 32.0742 14.5641C32.0742 14.426 31.9359 14.288 31.9359 14.1499C31.9359 14.0118 31.9359 13.8738 32.0742 13.7357C33.0419 13.5976 33.7332 13.4596 33.7332 13.1834C33.7332 12.9073 33.0419 12.7692 32.0742 12.6312C32.0742 12.4931 31.9359 12.355 31.9359 12.217C31.9359 12.0789 31.9359 11.9408 32.0742 11.8028C33.0419 11.6647 33.7332 11.5266 33.7332 11.2505C33.7332 10.9744 33.0419 10.8363 32.0742 10.6982C32.0742 10.5602 31.9359 10.4221 31.9359 10.284C31.9359 10.146 31.9359 10.0079 32.0742 9.86982C33.0419 9.73175 33.7332 9.59369 33.7332 9.31755C33.7332 9.04142 33.0419 8.90335 32.0742 8.76529C32.0742 8.62722 31.9359 8.48915 31.9359 8.35108C31.9359 8.21302 31.9359 8.07495 32.0742 7.93688C33.0419 7.79882 33.7332 7.66075 33.7332 7.38462C33.7332 7.10848 33.0419 6.97041 32.0742 6.83235C32.0742 6.69428 31.9359 6.55621 31.9359 6.41815C31.9359 6.28008 31.9359 6.14201 32.0742 6.00394C33.0419 5.86588 33.7332 5.72781 33.7332 5.45168C33.7332 5.17554 33.0419 5.03748 32.0742 4.89941C32.2124 4.76134 32.2124 4.62327 32.2124 4.34714C32.2124 3.79487 31.7977 3.51874 31.3829 3.51874H30.6917V2.13807C30.5534 2.13807 30.4152 2 30.4152 2H28.7562C28.6179 2 28.6179 2.13807 28.6179 2.13807V3.93294H27.9267C27.5119 3.93294 27.0972 4.34714 27.0972 4.76134C27.0972 4.89941 27.0972 5.17554 27.2354 5.31361C26.1294 5.45168 25.5764 5.58974 25.5764 5.86588C25.5764 6.14201 26.2676 6.28008 27.2354 6.41815C27.2354 6.55621 27.3737 6.69428 27.3737 6.83235C27.3737 6.97041 27.3737 7.10848 27.2354 7.24655C26.2676 7.38462 25.5764 7.52268 25.5764 7.79882C25.5764 8.07495 26.2676 8.21302 27.2354 8.35108C27.2354 8.48915 27.3737 8.62722 27.3737 8.76529C27.3737 8.90335 27.3737 9.04142 27.2354 9.17949C26.2676 9.31755 25.5764 9.45562 25.5764 9.73175C25.5764 10.0079 26.2676 10.146 27.2354 10.284C27.2354 10.4221 27.3737 10.5602 27.3737 10.6982C27.3737 10.8363 27.3737 10.9744 27.2354 11.1124C26.2676 11.2505 25.5764 11.3886 25.5764 11.6647C25.5764 11.9408 26.2676 12.0789 27.2354 12.217C27.2354 12.355 27.3737 12.4931 27.3737 12.6312C27.3737 12.7692 27.3737 12.9073 27.2354 13.0454C26.2676 13.1834 25.5764 13.3215 25.5764 13.5976C25.5764 13.8738 26.2676 14.0118 27.2354 14.1499C27.2354 14.288 27.3737 14.426 27.3737 14.5641C27.3737 14.7022 27.3737 14.8402 27.2354 14.9783C26.2676 15.1164 25.5764 15.2544 25.5764 15.5306C25.5764 15.8067 26.2676 15.9448 27.2354 16.0828C27.2354 16.2209 27.3737 16.359 27.3737 16.497C27.3737 16.6351 27.3737 16.7732 27.2354 16.9112C25.9911 16.6351 25.4381 16.7732 25.4381 17.0493Z" fill="url(#paint1_linear_201_2)"/>
<path d="M14.5163 17.0493C14.5163 17.4635 16.3136 17.7396 18.6638 17.7396C20.8759 17.7396 22.8114 17.4635 22.8114 17.0493C22.8114 16.7732 22.1201 16.6351 21.1524 16.497C21.1524 16.359 21.0141 16.2209 21.0141 16.0828C21.0141 15.9448 21.0141 15.8067 21.1524 15.6686C22.1201 15.5306 22.8114 15.3925 22.8114 15.1164C22.8114 14.8402 22.1201 14.7022 21.1524 14.5641C21.1524 14.426 21.0141 14.288 21.0141 14.1499C21.0141 14.0118 21.0141 13.8738 21.1524 13.7357C22.1201 13.5976 22.8114 13.4596 22.8114 13.1834C22.8114 12.9073 22.1201 12.7692 21.1524 12.6312C21.1524 12.4931 21.0141 12.355 21.0141 12.217C21.0141 12.0789 21.0141 11.9408 21.1524 11.8028C22.1201 11.6647 22.8114 11.5266 22.8114 11.2505C22.8114 10.9744 22.1201 10.8363 21.1524 10.6982C21.1524 10.5602 21.0141 10.4221 21.0141 10.284C21.0141 10.146 21.0141 10.0079 21.1524 9.86982C22.1201 9.73175 22.8114 9.59369 22.8114 9.31755C22.8114 9.04142 22.1201 8.90335 21.1524 8.76529C21.1524 8.62722 21.0141 8.48915 21.0141 8.35108C21.0141 8.21302 21.0141 8.07495 21.1524 7.93688C22.1201 7.79882 22.8114 7.66075 22.8114 7.38462C22.8114 7.10848 22.1201 6.97041 21.1524 6.83235C21.1524 6.69428 21.0141 6.55621 21.0141 6.41815C21.0141 6.28008 21.0141 6.14201 21.1524 6.00394C22.1201 5.86588 22.8114 5.72781 22.8114 5.45168C22.8114 5.17554 22.1201 5.03748 21.1524 4.89941C21.2906 4.76134 21.2906 4.62327 21.2906 4.34714C21.2906 3.79487 20.8759 3.51874 20.4611 3.51874H19.7699V2.13807C19.7699 2 19.6316 2 19.6316 2H17.9726C17.8343 2 17.8343 2.13807 17.8343 2.13807V3.93294H17.1431C16.7283 3.93294 16.3136 4.34714 16.3136 4.76134C16.3136 4.89941 16.3136 5.17554 16.4518 5.31361C15.3458 5.45168 14.7928 5.58974 14.7928 5.86588C14.7928 6.14201 15.4841 6.28008 16.4518 6.41815C16.4518 6.55621 16.5901 6.69428 16.5901 6.83235C16.5901 6.97041 16.5901 7.10848 16.4518 7.24655C15.4841 7.38462 14.7928 7.52268 14.7928 7.79882C14.7928 8.07495 15.4841 8.21302 16.4518 8.35108C16.4518 8.48915 16.5901 8.62722 16.5901 8.76529C16.5901 8.90335 16.5901 9.04142 16.4518 9.17949C15.4841 9.31755 14.7928 9.45562 14.7928 9.73175C14.7928 10.0079 15.4841 10.146 16.4518 10.284C16.4518 10.4221 16.5901 10.5602 16.5901 10.6982C16.5901 10.8363 16.5901 10.9744 16.4518 11.1124C15.4841 11.2505 14.7928 11.3886 14.7928 11.6647C14.7928 11.9408 15.4841 12.0789 16.4518 12.217C16.4518 12.355 16.5901 12.4931 16.5901 12.6312C16.5901 12.7692 16.5901 12.9073 16.4518 13.0454C15.4841 13.1834 14.7928 13.3215 14.7928 13.5976C14.7928 13.8738 15.4841 14.0118 16.4518 14.1499C16.4518 14.288 16.5901 14.426 16.5901 14.5641C16.5901 14.7022 16.5901 14.8402 16.4518 14.9783C15.4841 15.1164 14.7928 15.2544 14.7928 15.5306C14.7928 15.8067 15.4841 15.9448 16.4518 16.0828C16.4518 16.2209 16.5901 16.359 16.5901 16.497C16.5901 16.6351 16.5901 16.7732 16.4518 16.9112C15.0693 16.6351 14.5163 16.7732 14.5163 17.0493Z" fill="url(#paint2_linear_201_2)"/>
<path d="M0 19.8106V22.0197H2.76501V23.4004H5.39178V22.0197H10.0923V23.4004H12.5808V22.0197H17.2813V23.4004H19.9081V22.0197H24.6086V23.4004H27.0971V22.0197H31.7977V23.4004H34.4244V22.0197H39.1249V23.4004H41.7517V22.0197H46.4522V23.4004H48.9407V22.0197H53.6413V23.4004H56.268V22.0197H59.033V19.8106H0Z" fill="url(#paint3_linear_201_2)"/>
<path d="M46.5905 66.4773V63.5779H52.8118V25.6095H6.22128V63.5779H12.4426V66.4773H46.5905ZM46.867 29.6134C46.867 28.3708 47.42 27.2663 48.2495 27.2663H49.7703C50.4615 27.2663 51.0145 28.0947 51.1528 29.1992H50.3233C49.4938 29.1992 48.8025 30.1657 48.8025 31.4083V58.6075C48.8025 59.8501 49.4938 60.8166 50.3233 60.8166H50.738C50.4615 61.2308 50.185 61.5069 49.7703 61.5069H48.1112C47.42 61.5069 46.7287 60.5404 46.7287 59.1598V29.6134H46.867ZM39.8162 29.6134C39.8162 28.3708 40.3692 27.2663 41.1987 27.2663H42.8577C43.549 27.2663 44.102 28.0947 44.2402 29.1992H43.4107C42.5812 29.1992 41.89 30.1657 41.89 31.4083V58.6075C41.89 59.8501 42.5812 60.8166 43.4107 60.8166H43.8255C43.549 61.2308 43.2725 61.5069 42.8577 61.5069H41.1987C40.5075 61.5069 39.8162 60.5404 39.8162 59.1598V29.6134ZM33.7332 29.6134C33.7332 28.3708 34.2862 27.2663 35.1157 27.2663H36.7747C37.4659 27.2663 38.0189 28.0947 38.1572 29.1992H37.3277C36.4982 29.1992 35.8069 30.1657 35.8069 31.4083V58.6075C35.8069 59.8501 36.4982 60.8166 37.3277 60.8166H37.7424C37.4659 61.2308 37.1894 61.5069 36.7747 61.5069H35.1157C34.4244 61.5069 33.7332 60.5404 33.7332 59.1598V29.6134ZM27.6501 29.6134C27.6501 28.3708 28.2031 27.2663 29.0326 27.2663H30.6917C31.3829 27.2663 31.9359 28.0947 32.0742 29.1992H31.2447C30.4152 29.1992 29.7239 30.1657 29.7239 31.4083V58.6075C29.7239 59.8501 30.4152 60.8166 31.2447 60.8166H31.6594C31.3829 61.2308 31.1064 61.5069 30.6917 61.5069H29.0326C28.3414 61.5069 27.6501 60.5404 27.6501 59.1598V29.6134ZM21.5671 29.6134C21.5671 28.3708 22.1201 27.2663 22.9496 27.2663H24.6086C25.2999 27.2663 25.8529 28.0947 25.9911 29.1992H25.1616C24.3321 29.1992 23.6409 30.1657 23.6409 31.4083V58.6075C23.6409 59.8501 24.3321 60.8166 25.1616 60.8166H25.5764C25.2999 61.2308 25.0234 61.5069 24.6086 61.5069H22.9496C22.2584 61.5069 21.5671 60.5404 21.5671 59.1598V29.6134V29.6134ZM15.4841 29.6134C15.4841 28.3708 16.0371 27.2663 16.8666 27.2663H18.5256C19.2168 27.2663 19.7699 28.0947 19.9081 29.1992H19.0786C18.2491 29.1992 17.5578 30.1657 17.5578 31.4083V58.6075C17.5578 59.8501 18.2491 60.8166 19.0786 60.8166H19.3551C19.0786 61.2308 18.8021 61.5069 18.3873 61.5069H16.7283C16.0371 61.5069 15.3458 60.5404 15.3458 59.1598V29.6134H15.4841ZM12.3043 61.5069H10.7836C10.0923 61.5069 9.40105 60.5404 9.40105 59.1598V29.6134C9.40105 28.3708 9.95405 27.2663 10.7836 27.2663H12.4426C13.1338 27.2663 13.6868 28.0947 13.8251 29.1992H12.8573C12.0278 29.1992 11.3366 30.1657 11.3366 31.4083V58.6075C11.3366 59.8501 12.0278 60.8166 12.8573 60.8166H13.2721C12.9956 61.2308 12.7191 61.5069 12.3043 61.5069Z" fill="url(#paint4_linear_201_2)"/>
<path d="M53.2265 67.5818H5.80652V72H53.2265V67.5818Z" fill="url(#paint5_linear_201_2)"/>
<path d="M79.6324 43.6962C77.9734 43.6962 76.3144 43.282 74.9319 42.4536C73.5494 41.6252 72.4434 40.6588 71.6139 39.2781C70.7843 37.8974 70.3696 36.3787 70.3696 34.7219C70.3696 33.0651 70.7843 31.5463 71.6139 30.1657C72.4434 28.785 73.5494 27.6805 74.9319 26.9901C76.3144 26.1617 77.9734 25.7475 79.6324 25.7475C81.2914 25.7475 82.9504 26.1617 84.3329 26.9901C85.7154 27.8185 86.8214 28.9231 87.5127 30.4418L84.0564 32.7889C82.9504 30.856 81.4297 30.0276 79.4941 30.0276C78.5264 30.0276 77.8351 30.1657 77.0056 30.5799C76.3144 30.9941 75.7614 31.5463 75.3466 32.2367C74.9319 32.927 74.7936 33.7554 74.7936 34.7219C74.7936 36.1026 75.2084 37.3452 76.1761 38.1736C77.0056 39.002 78.2499 39.5542 79.6324 39.5542C81.5679 39.5542 82.9504 38.5878 84.1947 36.7929L87.6509 39.14C86.8214 40.6588 85.8537 41.7633 84.4712 42.5917C82.9504 43.282 81.2914 43.6962 79.6324 43.6962ZM90.1394 26.0237H94.7017V32.3747H100.923V26.0237H105.485V43.282H100.923V36.3787H94.5635V43.282H90.0012V26.0237H90.1394ZM118.896 41.9014H112.674L111.983 43.282H107.144L115.025 25.7475H116.407L124.287 43.282H119.449L118.896 41.9014ZM115.716 34.3077L114.195 38.3116H117.237L115.716 34.3077ZM126.085 26.0237H138.527V30.0276H130.647V32.5128H134.103C135.209 32.5128 136.177 32.7889 137.145 33.2031C137.974 33.6173 138.665 34.1696 139.218 34.998C139.771 35.8264 139.91 36.6548 139.91 37.7594C139.91 38.8639 139.633 39.8304 139.218 40.6588C138.665 41.4872 137.974 42.1775 137.145 42.5917C136.315 43.0059 135.209 43.282 134.103 43.282H126.085V26.0237ZM133.827 39.5542C134.38 39.5542 134.794 39.4162 135.071 39.14C135.347 38.8639 135.486 38.4497 135.486 37.8974C135.486 37.3452 135.347 36.931 135.071 36.6548C134.794 36.3787 134.38 36.2406 133.827 36.2406H130.509V39.5542H133.827ZM149.449 25.7475C151.108 25.7475 152.767 26.1617 154.15 26.9901C155.532 27.8185 156.638 28.785 157.468 30.1657C158.297 31.5463 158.712 33.0651 158.712 34.7219C158.712 36.3787 158.297 37.8974 157.468 39.2781C156.638 40.6588 155.532 41.7633 154.15 42.4536C152.767 43.282 151.108 43.6962 149.449 43.6962C147.652 43.6962 146.131 43.282 144.748 42.4536C143.366 41.6252 142.26 40.5207 141.569 39.002L145.025 36.6548C146.131 38.5878 147.652 39.4162 149.587 39.4162C150.693 39.4162 151.523 39.14 152.352 38.5878C153.182 38.0355 153.735 37.3452 154.011 36.3787H147.928V32.6509H153.873C153.458 31.8225 152.905 30.9941 152.214 30.5799C151.385 30.0276 150.555 29.7515 149.587 29.7515C147.652 29.7515 146.269 30.7179 145.025 32.5128L141.569 30.1657C142.398 28.6469 143.504 27.5424 144.748 26.714C146.131 26.1617 147.652 25.7475 149.449 25.7475ZM161.339 26.0237H165.901V32.3747H172.26V26.0237H176.823V43.282H172.26V36.3787H165.901V43.282H161.339V26.0237ZM180.141 26.0237H192.168V30.0276H184.703V32.3747H190.095V36.1026H184.703V39.2781H192.445V43.282H180.141V26.0237V26.0237ZM195.21 26.0237H201.984C203.229 26.0237 204.335 26.2998 205.441 26.714C206.408 27.2663 207.238 27.9566 207.791 28.785C208.344 29.6134 208.62 30.7179 208.62 31.9605C208.62 33.0651 208.344 34.1696 207.791 35.1361C207.238 36.1026 206.408 36.7929 205.441 37.2071C204.473 37.7594 203.229 37.8974 201.984 37.8974H199.772V43.282H195.21V26.0237ZM201.984 34.0316C202.676 34.0316 203.09 33.8935 203.505 33.4793C203.92 33.0651 204.058 32.6509 204.058 31.9605C204.058 31.4083 203.92 30.856 203.505 30.4418C203.09 30.0276 202.676 29.8895 201.984 29.8895H199.634V33.8935H201.984V34.0316ZM211.109 26.0237H222.722V30.0276H215.533V43.282H210.971V26.0237H211.109ZM233.091 43.6962C231.432 43.6962 229.911 43.282 228.39 42.4536C227.008 41.6252 225.902 40.6588 225.072 39.2781C224.243 37.8974 223.828 36.3787 223.828 34.7219C223.828 33.0651 224.243 31.5463 225.072 30.1657C225.902 28.785 227.008 27.6805 228.39 26.9901C229.773 26.1617 231.432 25.7475 233.091 25.7475C234.75 25.7475 236.409 26.1617 237.791 26.9901C239.174 27.8185 240.418 28.785 241.247 30.1657C242.077 31.5463 242.492 33.0651 242.492 34.7219C242.492 36.3787 242.077 37.8974 241.247 39.2781C240.418 40.6588 239.312 41.7633 237.791 42.4536C236.27 43.282 234.75 43.6962 233.091 43.6962ZM233.091 39.5542C233.92 39.5542 234.75 39.4162 235.441 39.002C236.132 38.5878 236.685 38.0355 237.1 37.3452C237.515 36.6548 237.653 35.8264 237.653 34.86C237.653 33.8935 237.515 33.0651 237.1 32.3747C236.685 31.6844 236.132 31.1321 235.441 30.7179C234.75 30.3037 233.92 30.1657 233.091 30.1657C232.123 30.1657 231.293 30.3037 230.602 30.7179C229.911 31.1321 229.358 31.6844 228.943 32.3747C228.528 33.0651 228.39 33.8935 228.39 34.86C228.39 36.2406 228.805 37.4832 229.634 38.3116C230.602 39.002 231.708 39.5542 233.091 39.5542ZM244.98 26.0237H251.755C252.999 26.0237 254.105 26.2998 255.211 26.714C256.179 27.2663 257.008 27.9566 257.561 28.785C258.114 29.6134 258.391 30.7179 258.391 31.9605C258.391 33.0651 258.114 34.1696 257.561 35.1361C257.008 36.1026 256.179 36.7929 255.211 37.2071C254.243 37.7594 252.999 37.8974 251.755 37.8974H249.543V43.282H244.98V26.0237ZM251.755 34.0316C252.446 34.0316 252.861 33.8935 253.275 33.4793C253.69 33.0651 253.828 32.6509 253.828 31.9605C253.828 31.4083 253.69 30.856 253.275 30.4418C252.861 30.0276 252.446 29.8895 251.755 29.8895H249.404V33.8935H251.755V34.0316ZM260.879 26.0237H272.907V30.0276H265.441V32.3747H270.833V36.1026H265.441V39.2781H273.183V43.282H260.879V26.0237V26.0237ZM283.829 43.6962C282.17 43.6962 280.511 43.282 279.128 42.4536C277.746 41.6252 276.64 40.6588 275.81 39.2781C274.981 37.8974 274.566 36.3787 274.566 34.7219C274.566 33.0651 274.981 31.5463 275.81 30.1657C276.64 28.785 277.746 27.6805 279.128 26.9901C280.511 26.1617 282.17 25.7475 283.829 25.7475C285.488 25.7475 287.147 26.1617 288.529 26.9901C289.912 27.8185 291.018 28.9231 291.709 30.4418L288.253 32.7889C287.147 30.856 285.626 30.0276 283.69 30.0276C282.723 30.0276 282.031 30.1657 281.202 30.5799C280.511 30.9941 279.958 31.5463 279.543 32.2367C279.128 32.927 278.99 33.7554 278.99 34.7219C278.99 36.1026 279.405 37.3452 280.372 38.1736C281.202 39.002 282.446 39.5542 283.829 39.5542C285.764 39.5542 287.147 38.5878 288.391 36.7929L291.847 39.14C291.018 40.6588 290.05 41.7633 288.667 42.5917C287.147 43.282 285.626 43.6962 283.829 43.6962ZM308.99 26.0237L303.322 38.7258C302.769 39.8304 302.354 40.6588 301.801 41.3491C301.387 42.0394 300.695 42.5917 300.004 42.8678C299.313 43.282 298.345 43.4201 297.101 43.4201C296.271 43.4201 295.58 43.282 294.75 43.144V39.2781C295.303 39.2781 295.856 39.2781 296.133 39.2781C297.101 39.2781 297.792 39.002 298.345 38.5878L292.262 25.7475H297.239L300.695 33.7554L303.875 25.7475H308.99V26.0237ZM310.788 26.0237H317.562C318.806 26.0237 319.912 26.2998 321.018 26.714C321.986 27.2663 322.815 27.9566 323.368 28.785C323.921 29.6134 324.198 30.7179 324.198 31.9605C324.198 33.0651 323.921 34.1696 323.368 35.1361C322.815 36.1026 321.986 36.7929 321.018 37.2071C320.05 37.7594 318.806 37.8974 317.562 37.8974H315.35V43.282H310.788V26.0237ZM317.562 34.0316C318.253 34.0316 318.668 33.8935 319.083 33.4793C319.497 33.0651 319.636 32.6509 319.636 31.9605C319.636 31.4083 319.497 30.856 319.083 30.4418C318.668 30.0276 318.253 29.8895 317.562 29.8895H315.212V33.8935H317.562V34.0316ZM335.12 43.6962C333.461 43.6962 331.802 43.282 330.419 42.4536C329.037 41.6252 327.931 40.6588 327.101 39.2781C326.272 37.8974 325.857 36.3787 325.857 34.7219C325.857 33.0651 326.272 31.5463 327.101 30.1657C327.931 28.785 329.037 27.6805 330.419 26.9901C331.802 26.1617 333.461 25.7475 335.12 25.7475C336.779 25.7475 338.438 26.1617 339.82 26.9901C341.203 27.8185 342.309 28.9231 343 30.4418L339.544 32.7889C338.438 30.856 336.917 30.0276 334.981 30.0276C334.014 30.0276 333.322 30.1657 332.493 30.5799C331.802 30.9941 331.249 31.5463 330.834 32.2367C330.419 32.927 330.281 33.7554 330.281 34.7219C330.281 36.1026 330.696 37.3452 331.663 38.1736C332.493 39.002 333.737 39.5542 335.12 39.5542C337.055 39.5542 338.438 38.5878 339.682 36.7929L343.138 39.14C342.309 40.6588 341.341 41.7633 339.958 42.5917C338.438 43.282 336.917 43.6962 335.12 43.6962Z" fill="white"/>
<path d="M70.2314 51.2899H71.8904V55.57H77.1439V51.2899H78.8029V62.0592H77.1439V57.0888H71.8904V62.0592H70.2314V51.2899ZM89.5865 51.0138C90.8307 51.0138 91.7985 51.428 92.628 52.1183C93.4575 52.8087 93.734 53.9132 93.734 55.2939V61.9211H92.2132V60.5404C91.7985 61.0927 91.2455 61.5069 90.6925 61.783C90.1395 62.0592 89.31 62.1972 88.6187 62.1972C87.5127 62.1972 86.6832 61.9211 85.8537 61.3688C85.1624 60.8166 84.7477 60.1262 84.7477 59.1598C84.7477 58.1933 85.1624 57.5029 85.8537 56.9507C86.5449 56.3984 87.5127 56.1223 88.6187 56.1223H92.075V55.1558C92.075 54.3274 91.7985 53.6371 91.3837 53.0848C90.969 52.6706 90.2777 52.3945 89.4482 52.3945C88.7569 52.3945 88.2039 52.5325 87.7892 52.8087C87.2362 53.0848 86.8214 53.499 86.4067 54.0513L85.3007 53.0848C85.8537 52.2564 86.4067 51.7041 87.2362 51.2899C87.7892 51.1519 88.6187 51.0138 89.5865 51.0138ZM88.7569 60.8166C89.3099 60.8166 89.863 60.6785 90.416 60.4024C90.969 60.1262 91.3837 59.8501 91.6602 59.2978C91.9367 58.8836 92.075 58.3314 92.075 57.7791V57.503H88.8952C88.204 57.503 87.5127 57.641 87.2362 57.9172C86.8214 58.1933 86.6832 58.6075 86.6832 59.0217C86.6832 59.574 86.9597 59.9882 87.3744 60.2643C87.5127 60.6785 88.0657 60.8166 88.7569 60.8166ZM110.324 60.4024V64.9586H108.665V61.9211H100.232V64.9586H98.5728V60.4024H99.817C100.37 59.8501 100.647 59.1598 100.923 58.0552C101.061 57.0887 101.2 55.7081 101.338 54.1893V51.1519H108.803V60.4024H110.324ZM102.72 54.3274C102.72 55.8461 102.582 57.0887 102.306 58.1933C102.029 59.2978 101.753 59.9882 101.476 60.5404H106.868V52.8087H102.72V54.3274ZM125.255 57.0888H116.822C116.96 58.1933 117.375 59.0217 118.066 59.574C118.757 60.2643 119.725 60.5404 120.693 60.5404C121.937 60.5404 123.043 59.9882 124.011 59.0217L124.979 60.1262C124.426 60.6785 123.734 61.2308 123.043 61.5069C122.352 61.783 121.522 62.0592 120.693 62.0592C119.587 62.0592 118.619 61.783 117.79 61.3688C116.96 60.8166 116.269 60.2643 115.716 59.2978C115.163 58.4694 115.025 57.503 115.025 56.3984C115.025 55.4319 115.301 54.4655 115.716 53.6371C116.269 52.8087 116.822 52.1183 117.651 51.5661C118.481 51.0138 119.449 50.8757 120.416 50.8757C121.384 50.8757 122.214 51.0138 122.905 51.428C123.596 51.8422 124.287 52.3945 124.702 53.0848C125.117 53.7751 125.393 54.6035 125.393 55.57C125.393 56.2603 125.393 56.6745 125.255 57.0888ZM120.555 52.5325C119.725 52.5325 118.896 52.8087 118.204 53.3609C117.513 53.9132 117.098 54.6035 116.96 55.57H123.734C123.734 54.6035 123.458 53.9132 122.767 53.3609C122.214 52.8087 121.384 52.5325 120.555 52.5325ZM132.168 51.2899L136.592 56.2603L131.753 62.0592H129.679L134.656 56.2603L130.094 51.2899H132.168ZM136.868 51.2899H138.527V62.0592H136.868V51.2899ZM145.716 61.9211H143.642L138.804 56.1223L143.228 51.1519H145.301L140.877 55.9842L145.716 61.9211ZM151.108 51.2899H152.767V55.57H158.021V51.2899H159.68V62.0592H158.021V57.0888H152.767V62.0592H151.108V51.2899ZM170.325 51.0138C171.569 51.0138 172.537 51.428 173.366 52.1183C174.196 52.8087 174.472 53.9132 174.472 55.2939V61.9211H172.952V60.5404C172.537 61.0927 171.984 61.5069 171.431 61.783C170.878 62.0592 170.048 62.1972 169.357 62.1972C168.251 62.1972 167.422 61.9211 166.592 61.3688C165.901 60.8166 165.486 60.1262 165.486 59.1598C165.486 58.1933 165.901 57.5029 166.592 56.9507C167.283 56.3984 168.251 56.1223 169.357 56.1223H172.813V55.1558C172.813 54.3274 172.537 53.6371 172.122 53.0848C171.707 52.6706 171.016 52.3945 170.187 52.3945C169.495 52.3945 168.942 52.5325 168.528 52.8087C167.975 53.0848 167.56 53.499 167.145 54.0513L166.039 53.0848C166.592 52.2564 167.145 51.7041 167.975 51.2899C168.666 51.1519 169.495 51.0138 170.325 51.0138ZM169.495 60.8166C170.048 60.8166 170.601 60.6785 171.154 60.4024C171.707 60.1262 172.122 59.8501 172.399 59.2978C172.675 58.8836 172.813 58.3314 172.813 57.7791V57.503H169.634C168.942 57.503 168.251 57.641 167.975 57.9172C167.56 58.1933 167.422 58.6075 167.422 59.0217C167.422 59.574 167.698 59.9882 168.113 60.2643C168.389 60.6785 168.942 60.8166 169.495 60.8166ZM188.989 51.2899V62.0592H187.33V58.1933H185.256L182.353 62.0592H180.417L183.597 57.9172C182.767 57.641 182.214 57.2268 181.8 56.6745C181.385 56.1223 181.108 55.4319 181.108 54.7416C181.108 53.6371 181.385 52.8087 182.076 52.2564C182.767 51.5661 183.735 51.2899 184.841 51.2899H188.989ZM187.191 52.8087H184.703C184.012 52.8087 183.459 52.9467 183.182 53.3609C182.767 53.6371 182.629 54.1893 182.629 54.7416C182.629 55.2939 182.767 55.7081 183.182 56.1223C183.597 56.3984 184.15 56.6745 184.841 56.6745H187.33V52.8087H187.191ZM205.441 51.0138C206.408 51.0138 207.376 51.2899 208.206 51.7041C209.035 52.2564 209.726 52.9467 210.279 53.7751C210.832 54.6035 210.971 55.57 210.971 56.5365C210.971 57.5029 210.694 58.4694 210.279 59.2978C209.726 60.1262 209.035 60.8166 208.206 61.3688C207.376 61.9211 206.408 62.0592 205.441 62.0592C204.473 62.0592 203.643 61.783 202.952 61.3688C202.261 60.9546 201.57 60.4024 201.155 59.712L202.399 58.7456C203.229 59.8501 204.335 60.4024 205.579 60.4024C206.547 60.4024 207.514 60.1262 208.206 59.4359C208.897 58.7456 209.312 57.9171 209.45 56.9507H204.611V55.4319H209.173C209.035 54.4655 208.482 53.7751 207.791 53.2229C207.1 52.6706 206.27 52.3945 205.302 52.3945C204.058 52.3945 202.952 52.9467 202.123 54.1893L200.878 53.2229C201.431 52.5325 201.984 51.9803 202.814 51.5661C203.643 51.1519 204.473 51.0138 205.441 51.0138ZM216.915 51.2899H218.574V55.57H223.828V51.2899H225.487V62.0592H223.966V57.0888H218.713V62.0592H217.054V51.2899H216.915ZM241.8 57.0888H233.367C233.505 58.1933 233.92 59.0217 234.611 59.574C235.303 60.2643 236.27 60.5404 237.238 60.5404C238.482 60.5404 239.588 59.9882 240.556 59.0217L241.524 60.1262C240.971 60.6785 240.28 61.2308 239.588 61.5069C238.897 61.783 238.068 62.0592 237.238 62.0592C236.132 62.0592 235.164 61.783 234.335 61.3688C233.505 60.8166 232.814 60.2643 232.261 59.2978C231.708 58.4694 231.57 57.503 231.57 56.3984C231.57 55.4319 231.846 54.4655 232.261 53.6371C232.814 52.8087 233.367 52.1183 234.197 51.5661C235.026 51.0138 235.994 50.8757 236.962 50.8757C237.929 50.8757 238.759 51.0138 239.45 51.428C240.141 51.8422 240.833 52.3945 241.247 53.0848C241.662 53.7751 241.939 54.6035 241.939 55.57C241.939 56.2603 241.939 56.6745 241.8 57.0888ZM237.1 52.5325C236.27 52.5325 235.441 52.8087 234.75 53.3609C234.058 53.9132 233.644 54.6035 233.505 55.57H240.28C240.28 54.6035 240.003 53.9132 239.312 53.3609C238.621 52.8087 237.929 52.5325 237.1 52.5325ZM253.552 51.0138C254.52 51.0138 255.487 51.2899 256.317 51.7041C257.146 52.2564 257.699 52.8087 258.252 53.7751C258.667 54.6035 258.944 55.57 258.944 56.6745C258.944 57.7791 258.667 58.6075 258.252 59.574C257.838 60.4024 257.146 61.0927 256.317 61.645C255.487 62.1972 254.658 62.3353 253.552 62.3353C252.722 62.3353 252.031 62.1972 251.34 61.9211C250.649 61.645 250.096 61.2308 249.681 60.6785V66.2012H248.022V51.2899H249.543V52.9467C249.957 52.3945 250.51 51.8422 251.202 51.5661C252.031 51.1519 252.722 51.0138 253.552 51.0138ZM253.414 60.6785C254.105 60.6785 254.796 60.5404 255.349 60.1262C255.902 59.712 256.317 59.2978 256.732 58.7456C257.008 58.1933 257.285 57.5029 257.285 56.6745C257.285 55.8461 257.146 55.1558 256.732 54.6035C256.455 54.0513 255.902 53.499 255.349 53.0848C254.796 52.6706 254.105 52.5325 253.414 52.5325C252.722 52.5325 252.169 52.6706 251.616 52.9467C251.063 53.2229 250.649 53.6371 250.234 54.3274C249.819 54.8797 249.681 55.7081 249.681 56.5365C249.681 57.3649 249.819 58.1933 250.234 58.7456C250.51 59.2978 251.063 59.8501 251.616 60.1262C252.031 60.5404 252.722 60.6785 253.414 60.6785ZM264.888 51.2899H272.077V52.8087H266.547V62.0592H264.888V51.2899ZM286.455 57.0888H278.022C278.16 58.1933 278.575 59.0217 279.266 59.574C279.958 60.2643 280.925 60.5404 281.893 60.5404C283.137 60.5404 284.243 59.9882 285.211 59.0217L286.179 60.1262C285.626 60.6785 284.935 61.2308 284.243 61.5069C283.552 61.783 282.723 62.0592 281.893 62.0592C280.787 62.0592 279.819 61.783 278.99 61.3688C278.16 60.8166 277.469 60.2643 276.916 59.2978C276.363 58.4694 276.225 57.503 276.225 56.3984C276.225 55.4319 276.501 54.4655 276.916 53.6371C277.469 52.8087 278.022 52.1183 278.852 51.5661C279.681 51.0138 280.649 50.8757 281.617 50.8757C282.584 50.8757 283.414 51.0138 284.105 51.428C284.796 51.8422 285.488 52.3945 285.902 53.0848C286.317 53.7751 286.594 54.6035 286.594 55.57C286.594 56.2603 286.594 56.6745 286.455 57.0888ZM281.617 52.5325C280.787 52.5325 279.958 52.8087 279.266 53.3609C278.575 53.9132 278.16 54.6035 278.022 55.57H284.796C284.796 54.6035 284.52 53.9132 283.829 53.3609C283.276 52.8087 282.584 52.5325 281.617 52.5325ZM294.612 52.8087H291.018V51.2899H299.866V52.8087H296.271V62.0592H294.612V52.8087V52.8087ZM314.106 51.0138V61.9211H312.447V54.3274L305.949 62.1972H305.396V51.2899H307.055V58.8836L313.553 51.0138H314.106ZM320.742 51.2899H322.401V62.0592H320.742V51.2899ZM329.728 61.9211H327.654L322.677 56.1223L327.239 51.1519H329.313L324.751 55.9842L329.728 61.9211ZM338.852 51.0138C340.097 51.0138 341.064 51.428 341.894 52.1183C342.724 52.8087 343 53.9132 343 55.2939V61.9211H341.479V60.5404C341.064 61.0927 340.511 61.5069 339.958 61.783C339.405 62.0592 338.576 62.1972 337.885 62.1972C336.779 62.1972 335.949 61.9211 335.12 61.3688C334.428 60.8166 334.014 60.1262 334.014 59.1598C334.014 58.1933 334.428 57.5029 335.12 56.9507C335.811 56.3984 336.779 56.1223 337.885 56.1223H341.341V55.1558C341.341 54.3274 341.064 53.6371 340.65 53.0848C340.235 52.6706 339.544 52.3945 338.714 52.3945C338.023 52.3945 337.47 52.5325 337.055 52.8087C336.502 53.0848 336.087 53.499 335.673 54.0513L334.567 53.0848C335.12 52.2564 335.673 51.7041 336.502 51.2899C337.193 51.1519 338.023 51.0138 338.852 51.0138ZM338.023 60.8166C338.576 60.8166 339.129 60.6785 339.682 60.4024C340.235 60.1262 340.65 59.8501 340.926 59.2978C341.203 58.8836 341.341 58.3314 341.341 57.7791V57.503H338.161C337.47 57.503 336.779 57.641 336.502 57.9172C336.226 58.1933 335.949 58.6075 335.949 59.0217C335.949 59.574 336.226 59.9882 336.64 60.2643C336.917 60.6785 337.47 60.8166 338.023 60.8166Z" fill="white"/>
</g>
<path d="M71.477 10.132C70.3037 10.132 69.3393 9.747 68.584 8.977C67.8213 8.19967 67.44 7.25733 67.44 6.15C67.44 5.04267 67.8213 4.10033 68.584 3.323C69.3393 2.553 70.3037 2.168 71.477 2.168C72.181 2.168 72.83 2.34033 73.424 2.685C74.018 3.02233 74.48 3.48067 74.81 4.06L74.128 4.456C73.886 3.98667 73.5267 3.61267 73.05 3.334C72.5733 3.05533 72.049 2.916 71.477 2.916C70.509 2.916 69.7243 3.22767 69.123 3.851C68.5143 4.48167 68.21 5.248 68.21 6.15C68.21 7.052 68.5143 7.81833 69.123 8.449C69.7243 9.07233 70.509 9.384 71.477 9.384C72.049 9.384 72.5733 9.24467 73.05 8.966C73.5267 8.68733 73.886 8.31333 74.128 7.844L74.81 8.229C74.4947 8.80833 74.0363 9.27033 73.435 9.615C72.8337 9.95967 72.181 10.132 71.477 10.132ZM76.6923 8.735L79.9703 4.5H80.5863V10H79.8603V5.765L76.5823 10H75.9663V4.5H76.6923V8.735ZM82.6936 4.5H86.6316V10H85.9056V5.204H83.4196V7.657C83.4196 8.57367 83.2436 9.20433 82.8916 9.549C82.5469 9.89367 82.0702 10.044 81.4616 10V9.318C81.8869 9.362 82.1986 9.25933 82.3966 9.01C82.5946 8.76067 82.6936 8.30967 82.6936 7.657V4.5ZM92.7784 9.307C92.2137 9.857 91.5317 10.132 90.7324 10.132C89.9184 10.132 89.2327 9.857 88.6754 9.307C88.1181 8.74967 87.8394 8.064 87.8394 7.25C87.8394 6.436 88.1181 5.754 88.6754 5.204C89.2327 4.64667 89.9184 4.368 90.7324 4.368C91.5391 4.368 92.2211 4.64667 92.7784 5.204C93.3431 5.754 93.6254 6.436 93.6254 7.25C93.6254 8.05667 93.3431 8.74233 92.7784 9.307ZM89.1924 8.801C89.6104 9.219 90.1237 9.428 90.7324 9.428C91.3411 9.428 91.8544 9.219 92.2724 8.801C92.6904 8.36833 92.8994 7.85133 92.8994 7.25C92.8994 6.64133 92.6904 6.128 92.2724 5.71C91.8544 5.28467 91.3411 5.072 90.7324 5.072C90.1237 5.072 89.6104 5.28467 89.1924 5.71C88.7744 6.128 88.5654 6.64133 88.5654 7.25C88.5654 7.85133 88.7744 8.36833 89.1924 8.801ZM98.3383 7.173C98.9396 7.393 99.2403 7.822 99.2403 8.46C99.2403 8.91467 99.0863 9.285 98.7783 9.571C98.4776 9.857 98.056 10 97.5133 10H94.8403V4.5H97.2933C97.8213 4.5 98.232 4.63567 98.5253 4.907C98.826 5.17833 98.9763 5.534 98.9763 5.974C98.9763 6.524 98.7636 6.92367 98.3383 7.173ZM97.2933 5.204H95.5663V6.876H97.2933C97.9313 6.876 98.2503 6.59 98.2503 6.018C98.2503 5.76133 98.166 5.56333 97.9973 5.424C97.836 5.27733 97.6013 5.204 97.2933 5.204ZM95.5663 9.296H97.5133C97.836 9.296 98.0816 9.219 98.2503 9.065C98.4263 8.911 98.5143 8.69467 98.5143 8.416C98.5143 8.152 98.4263 7.94667 98.2503 7.8C98.0816 7.65333 97.836 7.58 97.5133 7.58H95.5663V9.296ZM101.066 6.59H102.573C103.079 6.59 103.512 6.75133 103.871 7.074C104.231 7.38933 104.41 7.79633 104.41 8.295C104.41 8.801 104.231 9.21167 103.871 9.527C103.527 9.84233 103.094 10 102.573 10H100.34V4.5H101.066V6.59ZM105.18 10V4.5H105.906V10H105.18ZM101.066 9.296H102.573C102.889 9.296 103.153 9.20433 103.365 9.021C103.578 8.83033 103.684 8.58833 103.684 8.295C103.684 8.00167 103.578 7.76333 103.365 7.58C103.153 7.38933 102.889 7.294 102.573 7.294H101.066V9.296ZM109.993 4.368C110.814 4.368 111.47 4.65767 111.962 5.237C112.468 5.809 112.721 6.48733 112.721 7.272C112.721 7.30867 112.713 7.42233 112.699 7.613H107.87C107.943 8.163 108.178 8.603 108.574 8.933C108.97 9.263 109.465 9.428 110.059 9.428C110.895 9.428 111.485 9.11633 111.83 8.493L112.468 8.867C112.226 9.263 111.892 9.57467 111.467 9.802C111.049 10.022 110.576 10.132 110.048 10.132C109.182 10.132 108.478 9.86067 107.936 9.318C107.393 8.77533 107.122 8.086 107.122 7.25C107.122 6.42133 107.389 5.73567 107.925 5.193C108.46 4.643 109.149 4.368 109.993 4.368ZM109.993 5.072C109.421 5.072 108.94 5.24067 108.552 5.578C108.17 5.91533 107.943 6.359 107.87 6.909H111.973C111.892 6.32233 111.668 5.87133 111.302 5.556C110.92 5.23333 110.484 5.072 109.993 5.072ZM115.965 4.5H120.585V5.204H118.638V10H117.912V5.204H115.965V4.5ZM124.418 4.368C125.203 4.368 125.87 4.64667 126.42 5.204C126.978 5.76133 127.256 6.44333 127.256 7.25C127.256 8.05667 126.978 8.73867 126.42 9.296C125.87 9.85333 125.203 10.132 124.418 10.132C123.443 10.132 122.702 9.72867 122.196 8.922V12.2H121.47V4.5H122.196V5.578C122.702 4.77133 123.443 4.368 124.418 4.368ZM122.823 8.801C123.241 9.219 123.755 9.428 124.363 9.428C124.972 9.428 125.485 9.219 125.903 8.801C126.321 8.36833 126.53 7.85133 126.53 7.25C126.53 6.64133 126.321 6.128 125.903 5.71C125.485 5.28467 124.972 5.072 124.363 5.072C123.755 5.072 123.241 5.28467 122.823 5.71C122.405 6.128 122.196 6.64133 122.196 7.25C122.196 7.85133 122.405 8.36833 122.823 8.801ZM133.193 5.578V4.5H133.919V10H133.193V8.922C132.687 9.72867 131.947 10.132 130.971 10.132C130.187 10.132 129.516 9.85333 128.958 9.296C128.408 8.73867 128.133 8.05667 128.133 7.25C128.133 6.44333 128.408 5.76133 128.958 5.204C129.516 4.64667 130.187 4.368 130.971 4.368C131.947 4.368 132.687 4.77133 133.193 5.578ZM129.486 8.801C129.904 9.219 130.418 9.428 131.026 9.428C131.635 9.428 132.148 9.219 132.566 8.801C132.984 8.36833 133.193 7.85133 133.193 7.25C133.193 6.64133 132.984 6.128 132.566 5.71C132.148 5.28467 131.635 5.072 131.026 5.072C130.418 5.072 129.904 5.28467 129.486 5.71C129.068 6.128 128.859 6.64133 128.859 7.25C128.859 7.85133 129.068 8.36833 129.486 8.801ZM139.351 6.898V4.5H140.077V10H139.351V7.602H136.183V10H135.457V4.5H136.183V6.898H139.351ZM144.175 10.132C143.346 10.132 142.657 9.857 142.107 9.307C141.557 8.74233 141.282 8.05667 141.282 7.25C141.282 6.436 141.557 5.754 142.107 5.204C142.657 4.64667 143.346 4.368 144.175 4.368C144.717 4.368 145.205 4.5 145.638 4.764C146.07 5.02067 146.386 5.369 146.584 5.809L145.99 6.15C145.843 5.82 145.605 5.55967 145.275 5.369C144.952 5.171 144.585 5.072 144.175 5.072C143.566 5.072 143.053 5.28467 142.635 5.71C142.217 6.128 142.008 6.64133 142.008 7.25C142.008 7.85133 142.217 8.36833 142.635 8.801C143.053 9.219 143.566 9.428 144.175 9.428C144.578 9.428 144.941 9.33267 145.264 9.142C145.594 8.95133 145.85 8.68733 146.034 8.35L146.639 8.702C146.411 9.142 146.078 9.49033 145.638 9.747C145.198 10.0037 144.71 10.132 144.175 10.132ZM150.905 10.121V12.2H150.179V10.121C149.307 10.0403 148.61 9.736 148.089 9.208C147.561 8.66533 147.297 8.01267 147.297 7.25C147.297 6.48733 147.561 5.83467 148.089 5.292C148.61 4.764 149.307 4.45967 150.179 4.379V2.3H150.905V4.379C151.778 4.45967 152.475 4.764 152.995 5.292C153.523 5.83467 153.787 6.48733 153.787 7.25C153.787 8.01267 153.523 8.66533 152.995 9.208C152.475 9.736 151.778 10.0403 150.905 10.121ZM150.179 9.406V5.094C149.527 5.16 149.002 5.391 148.606 5.787C148.218 6.183 148.023 6.67067 148.023 7.25C148.023 7.82933 148.218 8.317 148.606 8.713C149.002 9.109 149.527 9.34 150.179 9.406ZM150.905 5.094V9.406C151.558 9.34 152.079 9.109 152.467 8.713C152.863 8.317 153.061 7.82933 153.061 7.25C153.061 6.67067 152.863 6.183 152.467 5.787C152.079 5.391 151.558 5.16 150.905 5.094ZM159.606 9.307C159.041 9.857 158.359 10.132 157.56 10.132C156.746 10.132 156.06 9.857 155.503 9.307C154.945 8.74967 154.667 8.064 154.667 7.25C154.667 6.436 154.945 5.754 155.503 5.204C156.06 4.64667 156.746 4.368 157.56 4.368C158.366 4.368 159.048 4.64667 159.606 5.204C160.17 5.754 160.453 6.436 160.453 7.25C160.453 8.05667 160.17 8.74233 159.606 9.307ZM156.02 8.801C156.438 9.219 156.951 9.428 157.56 9.428C158.168 9.428 158.682 9.219 159.1 8.801C159.518 8.36833 159.727 7.85133 159.727 7.25C159.727 6.64133 159.518 6.128 159.1 5.71C158.682 5.28467 158.168 5.072 157.56 5.072C156.951 5.072 156.438 5.28467 156.02 5.71C155.602 6.128 155.393 6.64133 155.393 7.25C155.393 7.85133 155.602 8.36833 156.02 8.801ZM164.615 4.368C165.4 4.368 166.067 4.64667 166.617 5.204C167.175 5.76133 167.453 6.44333 167.453 7.25C167.453 8.05667 167.175 8.73867 166.617 9.296C166.067 9.85333 165.4 10.132 164.615 10.132C163.64 10.132 162.899 9.72867 162.393 8.922V12.2H161.667V4.5H162.393V5.578C162.899 4.77133 163.64 4.368 164.615 4.368ZM163.02 8.801C163.438 9.219 163.952 9.428 164.56 9.428C165.169 9.428 165.682 9.219 166.1 8.801C166.518 8.36833 166.727 7.85133 166.727 7.25C166.727 6.64133 166.518 6.128 166.1 5.71C165.682 5.28467 165.169 5.072 164.56 5.072C163.952 5.072 163.438 5.28467 163.02 5.71C162.602 6.128 162.393 6.64133 162.393 7.25C162.393 7.85133 162.602 8.36833 163.02 8.801ZM173.215 4.5H174.051V10H173.325V5.611L171.4 8.735H171.312L169.387 5.611V10H168.661V4.5H169.497L171.356 7.514L173.215 4.5ZM180.319 5.578V4.5H181.045V10H180.319V8.922C179.813 9.72867 179.073 10.132 178.097 10.132C177.313 10.132 176.642 9.85333 176.084 9.296C175.534 8.73867 175.259 8.05667 175.259 7.25C175.259 6.44333 175.534 5.76133 176.084 5.204C176.642 4.64667 177.313 4.368 178.097 4.368C179.073 4.368 179.813 4.77133 180.319 5.578ZM176.612 8.801C177.03 9.219 177.544 9.428 178.152 9.428C178.761 9.428 179.274 9.219 179.692 8.801C180.11 8.36833 180.319 7.85133 180.319 7.25C180.319 6.64133 180.11 6.128 179.692 5.71C179.274 5.28467 178.761 5.072 178.152 5.072C177.544 5.072 177.03 5.28467 176.612 5.71C176.194 6.128 175.985 6.64133 175.985 7.25C175.985 7.85133 176.194 8.36833 176.612 8.801ZM181.923 4.5H186.543V5.204H184.596V10H183.87V5.204H181.923V4.5ZM191.821 9.307C191.257 9.857 190.575 10.132 189.775 10.132C188.961 10.132 188.276 9.857 187.718 9.307C187.161 8.74967 186.882 8.064 186.882 7.25C186.882 6.436 187.161 5.754 187.718 5.204C188.276 4.64667 188.961 4.368 189.775 4.368C190.582 4.368 191.264 4.64667 191.821 5.204C192.386 5.754 192.668 6.436 192.668 7.25C192.668 8.05667 192.386 8.74233 191.821 9.307ZM188.235 8.801C188.653 9.219 189.167 9.428 189.775 9.428C190.384 9.428 190.897 9.219 191.315 8.801C191.733 8.36833 191.942 7.85133 191.942 7.25C191.942 6.64133 191.733 6.128 191.315 5.71C190.897 5.28467 190.384 5.072 189.775 5.072C189.167 5.072 188.653 5.28467 188.235 5.71C187.817 6.128 187.608 6.64133 187.608 7.25C187.608 7.85133 187.817 8.36833 188.235 8.801ZM196.831 4.368C197.616 4.368 198.283 4.64667 198.833 5.204C199.391 5.76133 199.669 6.44333 199.669 7.25C199.669 8.05667 199.391 8.73867 198.833 9.296C198.283 9.85333 197.616 10.132 196.831 10.132C195.856 10.132 195.115 9.72867 194.609 8.922V12.2H193.883V4.5H194.609V5.578C195.115 4.77133 195.856 4.368 196.831 4.368ZM195.236 8.801C195.654 9.219 196.168 9.428 196.776 9.428C197.385 9.428 197.898 9.219 198.316 8.801C198.734 8.36833 198.943 7.85133 198.943 7.25C198.943 6.64133 198.734 6.128 198.316 5.71C197.898 5.28467 197.385 5.072 196.776 5.072C196.168 5.072 195.654 5.28467 195.236 5.71C194.818 6.128 194.609 6.64133 194.609 7.25C194.609 7.85133 194.818 8.36833 195.236 8.801ZM201.602 6.59H203.109C203.615 6.59 204.048 6.75133 204.407 7.074C204.767 7.38933 204.946 7.79633 204.946 8.295C204.946 8.801 204.767 9.21167 204.407 9.527C204.063 9.84233 203.63 10 203.109 10H200.876V4.5H201.602V6.59ZM205.716 10V4.5H206.442V10H205.716ZM201.602 9.296H203.109C203.425 9.296 203.689 9.20433 203.901 9.021C204.114 8.83033 204.22 8.58833 204.22 8.295C204.22 8.00167 204.114 7.76333 203.901 7.58C203.689 7.38933 203.425 7.294 203.109 7.294H201.602V9.296ZM211.464 8.735L214.742 4.5H215.358V10H214.632V5.765L211.354 10H210.738V4.5H211.464V8.735ZM224.252 9.307C223.687 9.857 223.005 10.132 222.206 10.132C221.392 10.132 220.706 9.857 220.149 9.307C219.592 8.74967 219.313 8.064 219.313 7.25C219.313 6.436 219.592 5.754 220.149 5.204C220.706 4.64667 221.392 4.368 222.206 4.368C223.013 4.368 223.695 4.64667 224.252 5.204C224.817 5.754 225.099 6.436 225.099 7.25C225.099 8.05667 224.817 8.74233 224.252 9.307ZM220.666 8.801C221.084 9.219 221.597 9.428 222.206 9.428C222.815 9.428 223.328 9.219 223.746 8.801C224.164 8.36833 224.373 7.85133 224.373 7.25C224.373 6.64133 224.164 6.128 223.746 5.71C223.328 5.28467 222.815 5.072 222.206 5.072C221.597 5.072 221.084 5.28467 220.666 5.71C220.248 6.128 220.039 6.64133 220.039 7.25C220.039 7.85133 220.248 8.36833 220.666 8.801ZM228.756 10.132C227.971 10.132 227.311 9.87167 226.776 9.351C226.248 8.823 225.984 8.141 225.984 7.305C225.984 6.36633 226.123 5.64767 226.402 5.149C226.681 4.643 227.245 4.18467 228.096 3.774C228.367 3.64933 228.58 3.554 228.734 3.488C228.991 3.38533 229.192 3.29733 229.339 3.224C229.977 2.93067 230.3 2.56767 230.307 2.135L230.879 2.465C230.842 2.64833 230.784 2.81333 230.703 2.96C230.608 3.12133 230.512 3.24967 230.417 3.345C230.329 3.44033 230.19 3.543 229.999 3.653C229.874 3.72633 229.724 3.807 229.548 3.895L228.998 4.126L228.481 4.346C227.975 4.566 227.597 4.797 227.348 5.039C227.106 5.27367 226.934 5.58167 226.831 5.963C227.066 5.64767 227.374 5.40933 227.755 5.248C228.136 5.07933 228.521 4.995 228.91 4.995C229.643 4.995 230.248 5.237 230.725 5.721C231.209 6.19767 231.451 6.81 231.451 7.558C231.451 8.29867 231.194 8.91467 230.681 9.406C230.175 9.89 229.533 10.132 228.756 10.132ZM227.326 8.867C227.707 9.22633 228.184 9.406 228.756 9.406C229.328 9.406 229.797 9.23367 230.164 8.889C230.538 8.537 230.725 8.09333 230.725 7.558C230.725 7.01533 230.549 6.57167 230.197 6.227C229.852 5.875 229.39 5.699 228.811 5.699C228.29 5.699 227.817 5.864 227.392 6.194C226.967 6.50933 226.754 6.942 226.754 7.492C226.754 8.04933 226.945 8.50767 227.326 8.867ZM237.164 9.307C236.599 9.857 235.917 10.132 235.118 10.132C234.304 10.132 233.618 9.857 233.061 9.307C232.504 8.74967 232.225 8.064 232.225 7.25C232.225 6.436 232.504 5.754 233.061 5.204C233.618 4.64667 234.304 4.368 235.118 4.368C235.925 4.368 236.607 4.64667 237.164 5.204C237.729 5.754 238.011 6.436 238.011 7.25C238.011 8.05667 237.729 8.74233 237.164 9.307ZM233.578 8.801C233.996 9.219 234.509 9.428 235.118 9.428C235.727 9.428 236.24 9.219 236.658 8.801C237.076 8.36833 237.285 7.85133 237.285 7.25C237.285 6.64133 237.076 6.128 236.658 5.71C236.24 5.28467 235.727 5.072 235.118 5.072C234.509 5.072 233.996 5.28467 233.578 5.71C233.16 6.128 232.951 6.64133 232.951 7.25C232.951 7.85133 233.16 8.36833 233.578 8.801ZM242.174 4.368C242.959 4.368 243.626 4.64667 244.176 5.204C244.733 5.76133 245.012 6.44333 245.012 7.25C245.012 8.05667 244.733 8.73867 244.176 9.296C243.626 9.85333 242.959 10.132 242.174 10.132C241.199 10.132 240.458 9.72867 239.952 8.922V12.2H239.226V4.5H239.952V5.578C240.458 4.77133 241.199 4.368 242.174 4.368ZM240.579 8.801C240.997 9.219 241.51 9.428 242.119 9.428C242.728 9.428 243.241 9.219 243.659 8.801C244.077 8.36833 244.286 7.85133 244.286 7.25C244.286 6.64133 244.077 6.128 243.659 5.71C243.241 5.28467 242.728 5.072 242.119 5.072C241.51 5.072 240.997 5.28467 240.579 5.71C240.161 6.128 239.952 6.64133 239.952 7.25C239.952 7.85133 240.161 8.36833 240.579 8.801ZM248.182 9.109L249.964 4.5H250.734L248.38 10.506C248.16 11.0633 247.852 11.4923 247.456 11.793C247.068 12.101 246.635 12.2367 246.158 12.2V11.518C246.818 11.5987 247.321 11.2173 247.665 10.374L247.808 10.033L245.344 4.5H246.114L248.182 9.109ZM255.899 4.5V9.296H256.669V11.474H255.943V10H251.455V11.474H250.729V9.296H251.4C251.774 8.79733 251.961 8.10433 251.961 7.217V4.5H255.899ZM252.28 9.296H255.173V5.204H252.687V7.217C252.687 8.06767 252.551 8.76067 252.28 9.296ZM262.161 9.307C261.597 9.857 260.915 10.132 260.115 10.132C259.301 10.132 258.616 9.857 258.058 9.307C257.501 8.74967 257.222 8.064 257.222 7.25C257.222 6.436 257.501 5.754 258.058 5.204C258.616 4.64667 259.301 4.368 260.115 4.368C260.922 4.368 261.604 4.64667 262.161 5.204C262.726 5.754 263.008 6.436 263.008 7.25C263.008 8.05667 262.726 8.74233 262.161 9.307ZM258.575 8.801C258.993 9.219 259.507 9.428 260.115 9.428C260.724 9.428 261.237 9.219 261.655 8.801C262.073 8.36833 262.282 7.85133 262.282 7.25C262.282 6.64133 262.073 6.128 261.655 5.71C261.237 5.28467 260.724 5.072 260.115 5.072C259.507 5.072 258.993 5.28467 258.575 5.71C258.157 6.128 257.948 6.64133 257.948 7.25C257.948 7.85133 258.157 8.36833 258.575 8.801ZM267.721 7.173C268.322 7.393 268.623 7.822 268.623 8.46C268.623 8.91467 268.469 9.285 268.161 9.571C267.86 9.857 267.439 10 266.896 10H264.223V4.5H266.676C267.204 4.5 267.615 4.63567 267.908 4.907C268.209 5.17833 268.359 5.534 268.359 5.974C268.359 6.524 268.146 6.92367 267.721 7.173ZM266.676 5.204H264.949V6.876H266.676C267.314 6.876 267.633 6.59 267.633 6.018C267.633 5.76133 267.549 5.56333 267.38 5.424C267.219 5.27733 266.984 5.204 266.676 5.204ZM264.949 9.296H266.896C267.219 9.296 267.464 9.219 267.633 9.065C267.809 8.911 267.897 8.69467 267.897 8.416C267.897 8.152 267.809 7.94667 267.633 7.8C267.464 7.65333 267.219 7.58 266.896 7.58H264.949V9.296ZM274.453 5.578V4.5H275.179V10H274.453V8.922C273.947 9.72867 273.206 10.132 272.231 10.132C271.446 10.132 270.775 9.85333 270.218 9.296C269.668 8.73867 269.393 8.05667 269.393 7.25C269.393 6.44333 269.668 5.76133 270.218 5.204C270.775 4.64667 271.446 4.368 272.231 4.368C273.206 4.368 273.947 4.77133 274.453 5.578ZM270.746 8.801C271.164 9.219 271.677 9.428 272.286 9.428C272.895 9.428 273.408 9.219 273.826 8.801C274.244 8.36833 274.453 7.85133 274.453 7.25C274.453 6.64133 274.244 6.128 273.826 5.71C273.408 5.28467 272.895 5.072 272.286 5.072C271.677 5.072 271.164 5.28467 270.746 5.71C270.328 6.128 270.119 6.64133 270.119 7.25C270.119 7.85133 270.328 8.36833 270.746 8.801ZM280.61 6.898V4.5H281.336V10H280.61V7.602H277.442V10H276.716V4.5H277.442V6.898H280.61ZM283.598 8.735L286.876 4.5H287.492V10H286.766V5.765L283.488 10H282.872V4.5H283.598V8.735ZM291.568 4.368C292.389 4.368 293.046 4.65767 293.537 5.237C294.043 5.809 294.296 6.48733 294.296 7.272C294.296 7.30867 294.289 7.42233 294.274 7.613H289.445C289.518 8.163 289.753 8.603 290.149 8.933C290.545 9.263 291.04 9.428 291.634 9.428C292.47 9.428 293.06 9.11633 293.405 8.493L294.043 8.867C293.801 9.263 293.467 9.57467 293.042 9.802C292.624 10.022 292.151 10.132 291.623 10.132C290.758 10.132 290.054 9.86067 289.511 9.318C288.968 8.77533 288.697 8.086 288.697 7.25C288.697 6.42133 288.965 5.73567 289.5 5.193C290.035 4.643 290.725 4.368 291.568 4.368ZM291.568 5.072C290.996 5.072 290.516 5.24067 290.127 5.578C289.746 5.91533 289.518 6.359 289.445 6.909H293.548C293.467 6.32233 293.244 5.87133 292.877 5.556C292.496 5.23333 292.059 5.072 291.568 5.072ZM302.821 4.5V9.296H303.591V11.474H302.865V10H298.377V11.474H297.651V9.296H298.322C298.696 8.79733 298.883 8.10433 298.883 7.217V4.5H302.821ZM299.202 9.296H302.095V5.204H299.609V7.217C299.609 8.06767 299.473 8.76067 299.202 9.296ZM305.261 4.5H309.199V10H308.473V5.204H305.987V7.657C305.987 8.57367 305.811 9.20433 305.459 9.549C305.114 9.89367 304.638 10.044 304.029 10V9.318C304.454 9.362 304.766 9.25933 304.964 9.01C305.162 8.76067 305.261 8.30967 305.261 7.657V4.5ZM312.464 4.5H314.697V10H313.971V7.888H313.025L311.331 10H310.407L312.145 7.866C311.697 7.8 311.331 7.61667 311.045 7.316C310.766 7.008 310.627 6.63767 310.627 6.205C310.627 5.71367 310.803 5.30667 311.155 4.984C311.521 4.66133 311.958 4.5 312.464 4.5ZM312.464 7.206H313.971V5.204H312.464C312.148 5.204 311.884 5.29933 311.672 5.49C311.459 5.67333 311.353 5.91167 311.353 6.205C311.353 6.49833 311.459 6.74033 311.672 6.931C311.884 7.11433 312.148 7.206 312.464 7.206ZM318.382 10V9.318C318.917 9.39133 319.317 9.22633 319.581 8.823C319.852 8.41967 319.988 7.67167 319.988 6.579V2.3H324.982V10H324.212V3.026H320.758V6.601C320.758 7.29767 320.703 7.88067 320.593 8.35C320.483 8.81933 320.318 9.175 320.098 9.417C319.885 9.659 319.639 9.824 319.361 9.912C319.089 10 318.763 10.0293 318.382 10ZM329.583 2.168C330.757 2.168 331.71 2.553 332.443 3.323C333.191 4.08567 333.565 5.028 333.565 6.15C333.565 7.272 333.191 8.218 332.443 8.988C331.703 9.75067 330.749 10.132 329.583 10.132C328.879 10.132 328.227 9.95967 327.625 9.615C327.024 9.27033 326.566 8.80833 326.25 8.229L326.932 7.844C327.174 8.31333 327.534 8.68733 328.01 8.966C328.487 9.24467 329.011 9.384 329.583 9.384C330.463 9.384 331.197 9.11267 331.783 8.57C332.363 8.03467 332.693 7.349 332.773 6.513H328.56V5.787H332.773C332.693 4.951 332.363 4.26533 331.783 3.73C331.197 3.18733 330.463 2.916 329.583 2.916C329.011 2.916 328.487 3.05533 328.01 3.334C327.534 3.61267 327.174 3.98667 326.932 4.456L326.25 4.06C326.58 3.48067 327.042 3.02233 327.636 2.685C328.23 2.34033 328.879 2.168 329.583 2.168ZM334.888 2.3H340.388V10H339.618V3.026H335.658V10H334.888V2.3Z" fill="#F5F5F5"/>
<defs>
<linearGradient id="paint0_linear_201_2" x1="35.4041" y1="16.1756" x2="45.4704" y2="6.09577" gradientUnits="userSpaceOnUse">
<stop stop-color="#09B2B2"/>
<stop offset="1" stop-color="#58D8DB"/>
</linearGradient>
<linearGradient id="paint1_linear_201_2" x1="24.4719" y1="16.1756" x2="34.5384" y2="6.09577" gradientUnits="userSpaceOnUse">
<stop stop-color="#09B2B2"/>
<stop offset="1" stop-color="#58D8DB"/>
</linearGradient>
<linearGradient id="paint2_linear_201_2" x1="13.5396" y1="16.1759" x2="23.6063" y2="6.09577" gradientUnits="userSpaceOnUse">
<stop stop-color="#09B2B2"/>
<stop offset="1" stop-color="#58D8DB"/>
</linearGradient>
<linearGradient id="paint3_linear_201_2" x1="14.1784" y1="36.2162" x2="44.8042" y2="5.54985" gradientUnits="userSpaceOnUse">
<stop stop-color="#09B2B2"/>
<stop offset="1" stop-color="#58D8DB"/>
</linearGradient>
<linearGradient id="paint4_linear_201_2" x1="8.37371" y1="65.7166" x2="50.5936" y2="23.4405" gradientUnits="userSpaceOnUse">
<stop stop-color="#09B2B2"/>
<stop offset="1" stop-color="#58D8DB"/>
</linearGradient>
<linearGradient id="paint5_linear_201_2" x1="16.5443" y1="82.7086" x2="42.4446" y2="56.7738" gradientUnits="userSpaceOnUse">
<stop stop-color="#09B2B2"/>
<stop offset="1" stop-color="#58D8DB"/>
</linearGradient>
<clipPath id="clip0_201_2">
<rect width="343" height="70" fill="white" transform="translate(0 2)"/>
</clipPath>
</defs>
</svg>
