<svg width="32" height="42" viewBox="0 0 32 42" fill="none" xmlns="http://www.w3.org/2000/svg">
<path d="M16 0C7.31289 0 0.25 7.06289 0.25 15.75C0.25 27.3656 14.7777 41.1797 15.4012 41.7621C15.5734 41.918 15.7867 42 16 42C16.2133 42 16.4348 41.918 16.5988 41.7621C17.2223 41.1797 31.75 27.3656 31.75 15.75C31.75 7.06289 24.6871 0 16 0ZM16 24.5027C11.1766 24.5027 7.24727 20.5734 7.24727 15.75C7.24727 10.9266 11.1766 6.99727 16 6.99727C20.8234 6.99727 24.7527 10.9266 24.7527 15.75C24.7527 20.5734 20.8234 24.5027 16 24.5027Z" fill="#58D8DB"/>
<path d="M16 0C7.31289 0 0.25 7.06289 0.25 15.75C0.25 27.3656 14.7777 41.1797 15.4012 41.7621C15.5734 41.918 15.7867 42 16 42C16.2133 42 16.4348 41.918 16.5988 41.7621C17.2223 41.1797 31.75 27.3656 31.75 15.75C31.75 7.06289 24.6871 0 16 0ZM16 24.5027C11.1766 24.5027 7.24727 20.5734 7.24727 15.75C7.24727 10.9266 11.1766 6.99727 16 6.99727C20.8234 6.99727 24.7527 10.9266 24.7527 15.75C24.7527 20.5734 20.8234 24.5027 16 24.5027Z" fill="url(#paint0_linear_74_1318)"/>
<defs>
<linearGradient id="paint0_linear_74_1318" x1="16" y1="0" x2="16" y2="42" gradientUnits="userSpaceOnUse">
<stop stop-color="#2F7EF5"/>
<stop offset="1" stop-color="#09B2B2"/>
</linearGradient>
</defs>
</svg>
