<svg width="20" height="17" viewBox="0 0 20 17" fill="none" xmlns="http://www.w3.org/2000/svg">
<g clip-path="url(#clip0_7_39)">
<path d="M18.5468 0.189331L0.783029 7.04417C0.783029 7.04417 -0.0597046 7.32489 0.00665237 7.84717C0.0730094 8.36944 0.756487 8.61099 0.756487 8.61099L5.22231 10.0929L5.22895 10.0995V10.0929L15.9522 3.38826C15.9522 3.38826 16.5694 3.01614 16.5495 3.38826C16.5495 3.38826 16.6623 3.45354 16.3305 3.76038C15.9987 4.06721 7.90314 11.2224 7.90314 11.2224L7.88986 11.3595L15.1759 16.8564C16.3902 17.3787 16.8348 16.2884 16.8348 16.2884L20 0.600621C20 -0.443926 18.5402 0.189331 18.5468 0.189331Z" fill="white"/>
<path d="M10.6768 13.4616L7.79029 16.0534C7.79029 16.0534 7.56467 16.2231 7.31915 16.1187L7.86992 11.3072" fill="white"/>
</g>
<defs>
<clipPath id="clip0_7_39">
<rect width="20" height="17" fill="white"/>
</clipPath>
</defs>
</svg>
