<svg width="20" height="17" viewBox="0 0 20 17" fill="none" xmlns="http://www.w3.org/2000/svg">
<g clip-path="url(#clip0_74_1164)">
<path d="M18.5468 0.189209L0.783044 7.04405C0.783044 7.04405 -0.0596903 7.32477 0.00666667 7.84704C0.0730237 8.36932 0.756501 8.61087 0.756501 8.61087L5.22233 10.0928L5.22896 10.0993V10.0928L15.9523 3.38813C15.9523 3.38813 16.5694 3.01601 16.5495 3.38813C16.5495 3.38813 16.6623 3.45342 16.3305 3.76025C15.9987 4.06709 7.90315 11.2222 7.90315 11.2222L7.88988 11.3593L15.1759 16.8563C16.3902 17.3785 16.8348 16.2883 16.8348 16.2883L20 0.600499C20 -0.444048 18.5402 0.189209 18.5468 0.189209Z" fill="#1393E2"/>
<path d="M10.6768 13.4615L7.79031 16.0533C7.79031 16.0533 7.5647 16.223 7.31918 16.1186L7.86994 11.3071" fill="#1393E2"/>
</g>
<defs>
<clipPath id="clip0_74_1164">
<rect width="20" height="17" fill="white"/>
</clipPath>
</defs>
</svg>
