<svg width="19" height="21" viewBox="0 0 19 21" fill="none" xmlns="http://www.w3.org/2000/svg">
<g clip-path="url(#clip0_7_32)">
<path d="M17.404 11.7639C16.91 16.0222 13.927 16.2944 13.376 16.4889C13.148 16.5667 10.963 17.1306 8.24602 16.9556L5.28202 20.3194V16.45H5.26302C1.29202 15.2833 1.42502 10.9472 1.46302 8.67222C1.50102 6.39722 1.91902 4.53055 3.13502 3.26666C5.32002 1.20555 9.80402 1.51666 9.80402 1.51666C13.604 1.53611 15.409 2.72222 15.827 3.13055C17.214 4.375 17.936 7.36944 17.404 11.7639ZM16.853 2.04166C16.359 1.575 14.345 0.0388859 9.86102 0.0194415C9.86102 0.0194415 4.57902 -0.311114 1.99502 2.15833C0.570019 3.65555 0.0570188 5.85277 0.0190188 8.575C-0.0379812 11.2972 -0.0949811 16.4111 4.59802 17.7917V19.9111C4.59802 19.9111 4.56002 20.7667 5.11102 20.9417C5.75702 21.1556 6.13702 20.4944 6.76402 19.7944C7.10602 19.4056 7.58102 18.8417 7.92302 18.4139C11.134 18.7056 13.604 18.0444 13.889 17.9472C14.535 17.7333 18.202 17.2278 18.81 12.1333C19.418 6.88333 18.506 3.53889 16.853 2.04166Z" fill="white"/>
<path d="M13.984 12.4055C13.984 12.4055 13.376 11.8805 13.091 11.6472C12.806 11.4333 12.369 11.1417 12.122 11.0055C11.685 10.7528 11.229 10.9083 11.039 11.1611L10.659 11.6667C10.469 11.9194 10.146 11.8805 10.07 11.8611C9.50004 11.7055 8.89204 11.3555 8.26504 10.7333C7.63804 10.1111 7.25804 9.44999 7.12504 8.78888L7.10604 8.74999C7.06804 8.47777 7.10604 8.34166 7.22004 8.14722L7.23904 8.12777C7.50504 7.87499 7.98004 7.58333 8.05604 7.29166C8.24604 6.7861 7.41004 5.7361 7.29604 5.56111C7.29604 5.56111 6.68804 4.74444 6.47904 4.58888C6.25104 4.39444 5.89004 4.27777 5.52904 4.51111H5.51004C4.46504 5.23055 4.10404 5.63888 4.19904 6.2611L4.25604 6.51388C4.78804 8.20555 5.79504 10.0333 7.31504 11.6472C8.81604 13.2222 10.45 14.175 12.046 14.8361C12.464 14.9722 12.901 14.8555 13.338 14.4667C13.68 14.1361 13.946 13.7861 14.136 13.4167C14.345 13.0278 14.269 12.6583 13.984 12.4055Z" fill="white"/>
<path d="M11.495 8.67221C11.438 8.67221 11.381 8.61388 11.381 8.55554C11.362 8.10832 11.248 7.77777 11.039 7.54443C10.83 7.3111 10.526 7.19443 10.127 7.17499C10.07 7.17499 10.013 7.11666 10.013 7.03888C10.013 6.9611 10.07 6.92221 10.146 6.92221C10.621 6.94166 10.982 7.09721 11.229 7.36943C11.476 7.64166 11.609 8.03054 11.647 8.5361C11.628 8.61388 11.571 8.67221 11.495 8.67221Z" fill="white"/>
<path d="M12.673 9.1C12.597 9.1 12.559 9.04166 12.559 8.96389C12.578 8.12777 12.331 7.40833 11.837 6.84444C11.59 6.55277 11.286 6.33889 10.944 6.18333C10.602 6.02777 10.203 5.93055 9.747 5.89166C9.69 5.89166 9.633 5.83333 9.633 5.75555C9.633 5.67777 9.69 5.63889 9.766 5.63889C10.716 5.71666 11.476 6.06666 12.008 6.66944C12.54 7.29166 12.806 8.05 12.787 8.96389C12.806 9.04166 12.749 9.1 12.673 9.1Z" fill="white"/>
<path d="M13.889 9.5861C13.832 9.5861 13.775 9.52777 13.775 9.46943C13.775 8.73055 13.661 8.04999 13.452 7.46666C13.243 6.88332 12.92 6.37777 12.502 5.94999C12.084 5.52221 11.609 5.19166 11.096 4.97777C10.583 4.76388 9.99399 4.64721 9.36699 4.64721C9.30999 4.64721 9.25299 4.58888 9.25299 4.53055C9.25299 4.45277 9.30999 4.41388 9.36699 4.41388C10.678 4.43332 11.78 4.88055 12.673 5.79443C13.11 6.24166 13.452 6.7861 13.68 7.40832C13.908 8.03055 14.022 8.73055 14.022 9.50832C14.022 9.52777 13.965 9.5861 13.889 9.5861Z" fill="white"/>
</g>
<defs>
<clipPath id="clip0_7_32">
<rect width="19" height="21" fill="white"/>
</clipPath>
</defs>
</svg>
