<svg width="21" height="21" viewBox="0 0 21 21" fill="none" xmlns="http://www.w3.org/2000/svg">
<g clip-path="url(#clip0_7_28)">
<path d="M17.934 3.05075C15.96 1.08657 13.335 0 10.542 0C4.788 0 0.084 4.6597 0.084 10.406C0.084 12.2448 0.567 14.0209 1.47 15.609L0 21L5.544 19.5582C7.077 20.394 8.799 20.8328 10.542 20.8328C16.296 20.8328 21 16.1731 21 10.4269C21 7.62687 19.908 5.01493 17.934 3.05075ZM10.542 19.0567C8.988 19.0567 7.455 18.6388 6.111 17.8448L5.796 17.6567L2.52 18.5343L3.402 15.3373L3.192 15.003C2.331 13.6239 1.869 12.0358 1.869 10.406C1.848 5.64179 5.754 1.75522 10.542 1.75522C12.873 1.75522 15.036 2.65373 16.695 4.28358C18.333 5.91343 19.236 8.08657 19.236 10.406C19.236 15.1701 15.33 19.0567 10.542 19.0567ZM15.309 12.5791C15.057 12.4537 13.755 11.8269 13.524 11.7433C13.293 11.6597 13.104 11.6179 12.936 11.8687C12.768 12.1194 12.264 12.7045 12.117 12.8925C11.97 13.0597 11.802 13.0806 11.55 12.9552C11.298 12.8299 10.437 12.5582 9.45 11.6597C8.673 10.9701 8.148 10.1134 8.001 9.86269C7.854 9.61194 7.98 9.46567 8.106 9.3403C8.232 9.21493 8.358 9.02687 8.505 8.8806C8.631 8.73433 8.673 8.62985 8.757 8.44179C8.841 8.27463 8.799 8.10746 8.736 7.98209C8.673 7.85672 8.148 6.58209 7.938 6.0597C7.728 5.55821 7.518 5.6209 7.35 5.6209C7.203 5.6209 7.014 5.6209 6.846 5.6209C6.678 5.6209 6.384 5.68358 6.153 5.95522C5.922 6.20597 5.229 6.85373 5.229 8.12836C5.229 9.40299 6.174 10.6358 6.3 10.8239C6.426 10.991 8.148 13.6239 10.773 14.7522C11.403 15.0239 11.886 15.1701 12.264 15.2955C12.894 15.4836 13.461 15.4627 13.902 15.4C14.406 15.3164 15.456 14.7731 15.666 14.1672C15.876 13.5612 15.876 13.0388 15.813 12.9343C15.75 12.7672 15.582 12.7045 15.309 12.5791Z" fill="white"/>
</g>
<defs>
<clipPath id="clip0_7_28">
<rect width="21" height="21" fill="white"/>
</clipPath>
</defs>
</svg>
