<svg width="17" height="17" viewBox="0 0 17 17" fill="none" xmlns="http://www.w3.org/2000/svg">
<g clip-path="url(#clip0_74_1160)">
<path d="M14.518 2.46965C12.92 0.879602 10.795 0 8.534 0C3.876 0 0.068 3.77214 0.068 8.42388C0.068 9.91244 0.459 11.3502 1.19 12.6358L0 17L4.488 15.8328C5.729 16.5095 7.123 16.8647 8.534 16.8647C13.192 16.8647 17 13.0925 17 8.4408C17 6.17413 16.116 4.0597 14.518 2.46965ZM8.534 15.4269C7.276 15.4269 6.035 15.0886 4.947 14.4458L4.692 14.2935L2.04 15.004L2.754 12.4159L2.584 12.1453C1.887 11.0289 1.513 9.74328 1.513 8.42388C1.496 4.56716 4.658 1.4209 8.534 1.4209C10.421 1.4209 12.172 2.14826 13.515 3.46766C14.841 4.78706 15.572 6.54627 15.572 8.42388C15.572 12.2806 12.41 15.4269 8.534 15.4269ZM12.393 10.1831C12.189 10.0816 11.135 9.57413 10.948 9.50647C10.761 9.43881 10.608 9.40497 10.472 9.60796C10.336 9.81094 9.928 10.2846 9.809 10.4368C9.69 10.5721 9.554 10.5891 9.35 10.4876C9.146 10.3861 8.449 10.1662 7.65 9.43881C7.021 8.8806 6.596 8.18707 6.477 7.98408C6.358 7.78109 6.46 7.66269 6.562 7.56119C6.664 7.4597 6.766 7.30746 6.885 7.18905C6.987 7.07065 7.021 6.98607 7.089 6.83383C7.157 6.69851 7.123 6.56318 7.072 6.46169C7.021 6.3602 6.596 5.32836 6.426 4.90547C6.256 4.4995 6.086 4.55025 5.95 4.55025C5.831 4.55025 5.678 4.55025 5.542 4.55025C5.406 4.55025 5.168 4.601 4.981 4.8209C4.794 5.02388 4.233 5.54826 4.233 6.5801C4.233 7.61194 4.998 8.60995 5.1 8.76219C5.202 8.89751 6.596 11.0289 8.721 11.9423C9.231 12.1622 9.622 12.2806 9.928 12.3821C10.438 12.5343 10.897 12.5174 11.254 12.4667C11.662 12.399 12.512 11.9592 12.682 11.4687C12.852 10.9781 12.852 10.5552 12.801 10.4706C12.75 10.3353 12.614 10.2846 12.393 10.1831Z" fill="#33CE62"/>
</g>
<defs>
<clipPath id="clip0_74_1160">
<rect width="17" height="17" fill="white"/>
</clipPath>
</defs>
</svg>
